solid OpenSCAD_Model
  facet normal 0.572058 -0.587792 0.572058
    outer loop
      vertex -29.0894 88.5766 -42.8026
      vertex -32.1491 88.5766 -39.743
      vertex -32.9901 88.323 -39.1625
    endloop
  endfacet
  facet normal 0.572045 -0.587817 0.572045
    outer loop
      vertex -35.5217 88.5766 -36.3703
      vertex -35.8069 88.5766 -36.0851
      vertex -35.8185 88.5542 -36.0966
    endloop
  endfacet
  facet normal 0.572061 -0.587783 0.572063
    outer loop
      vertex -36.5398 87.15 -36.818
      vertex -35.2223 87.65 -37.6218
      vertex -36.283 87.65 -36.5611
    endloop
  endfacet
  facet normal 0.572061 -0.587786 0.572061
    outer loop
      vertex -29.8223 87.15 -43.5355
      vertex -35.2223 87.65 -37.6218
      vertex -36.5398 87.15 -36.818
    endloop
  endfacet
  facet normal 0.572062 -0.587785 0.572062
    outer loop
      vertex -35.2223 87.65 -37.6218
      vertex -29.8223 87.15 -43.5355
      vertex -32.9901 88.323 -39.1625
    endloop
  endfacet
  facet normal 0.572061 -0.587786 0.572061
    outer loop
      vertex -32.9901 88.323 -39.1625
      vertex -29.8223 87.15 -43.5355
      vertex -29.0894 88.5766 -42.8026
    endloop
  endfacet
  facet normal -0.707106 -1.23755e-06 0.707107
    outer loop
      vertex -29.8223 87.15 -43.5355
      vertex -27.9036 88.0317 -41.6168
      vertex -29.0894 88.5766 -42.8026
    endloop
  endfacet
  facet normal -0.707107 7.64847e-07 0.707107
    outer loop
      vertex -28.2962 86.0879 -42.0094
      vertex -27.9036 88.0317 -41.6168
      vertex -29.8223 87.15 -43.5355
    endloop
  endfacet
  facet normal -0.707107 -7.06648e-07 0.707106
    outer loop
      vertex -28.2962 86.0879 -42.0094
      vertex -29.8223 87.15 -43.5355
      vertex -29.2767 86.0879 -42.9899
    endloop
  endfacet
  facet normal -0.707105 0 0.707108
    outer loop
      vertex -27.9036 88.0317 -41.6168
      vertex -28.2962 86.0879 -42.0094
      vertex -27.9036 86.2683 -41.6168
    endloop
  endfacet
  facet normal -0.707107 0 -0.707107
    outer loop
      vertex -27.9036 86.2683 -41.6168
      vertex -34.6211 88.0317 -34.8993
      vertex -27.9036 88.0317 -41.6168
    endloop
  endfacet
  facet normal -0.707107 -0 -0.707107
    outer loop
      vertex -34.6211 88.0317 -34.8993
      vertex -27.9036 86.2683 -41.6168
      vertex -34.6211 86.2683 -34.8993
    endloop
  endfacet
  facet normal -0.218508 -0.951056 -0.218508
    outer loop
      vertex -35.5217 88.5766 -36.3703
      vertex -34.6211 88.0317 -34.8993
      vertex -35.8069 88.5766 -36.0851
    endloop
  endfacet
  facet normal -0.218508 -0.951056 -0.218508
    outer loop
      vertex -33.4954 88.5405 -38.2394
      vertex -34.6211 88.0317 -34.8993
      vertex -35.5217 88.5766 -36.3703
    endloop
  endfacet
  facet normal -0.21851 -0.951056 -0.218509
    outer loop
      vertex -32.2294 88.5405 -39.5054
      vertex -34.6211 88.0317 -34.8993
      vertex -33.4954 88.5405 -38.2394
    endloop
  endfacet
  facet normal -0.218508 -0.951056 -0.218508
    outer loop
      vertex -32.2294 88.5405 -39.5054
      vertex -27.9036 88.0317 -41.6168
      vertex -34.6211 88.0317 -34.8993
    endloop
  endfacet
  facet normal -0.218503 -0.951061 -0.218495
    outer loop
      vertex -32.1555 88.5663 -39.6918
      vertex -27.9036 88.0317 -41.6168
      vertex -32.2294 88.5405 -39.5054
    endloop
  endfacet
  facet normal -0.218523 -0.951044 -0.218546
    outer loop
      vertex -32.1491 88.5766 -39.743
      vertex -27.9036 88.0317 -41.6168
      vertex -32.1555 88.5663 -39.6918
    endloop
  endfacet
  facet normal -0.218508 -0.951056 -0.218508
    outer loop
      vertex -27.9036 88.0317 -41.6168
      vertex -32.1491 88.5766 -39.743
      vertex -29.0894 88.5766 -42.8026
    endloop
  endfacet
  facet normal 0.572062 0.587785 0.572061
    outer loop
      vertex -29.8869 85.7753 -42.0584
      vertex -36.5398 87.15 -36.818
      vertex -36.039 86.1752 -36.3172
    endloop
  endfacet
  facet normal 0.572062 0.587784 0.572061
    outer loop
      vertex -29.8223 87.15 -43.5355
      vertex -29.8869 85.7753 -42.0584
      vertex -29.2767 86.0879 -42.9899
    endloop
  endfacet
  facet normal 0.572062 0.587785 0.572062
    outer loop
      vertex -29.8869 85.7753 -42.0584
      vertex -29.8223 87.15 -43.5355
      vertex -36.5398 87.15 -36.818
    endloop
  endfacet
  facet normal 0.57206 0.587788 0.57206
    outer loop
      vertex -29.9881 85.7234 -41.904
      vertex -36.039 86.1752 -36.3172
      vertex -35.8069 85.7234 -36.0851
    endloop
  endfacet
  facet normal 0.572051 0.587809 0.572048
    outer loop
      vertex -36.039 86.1752 -36.3172
      vertex -29.9881 85.7234 -41.904
      vertex -29.8869 85.7753 -42.0584
    endloop
  endfacet
  facet normal -0.218508 0.951056 -0.218508
    outer loop
      vertex -29.9881 85.7234 -41.904
      vertex -34.6211 86.2683 -34.8993
      vertex -27.9036 86.2683 -41.6168
    endloop
  endfacet
  facet normal -0.218508 0.951056 -0.218508
    outer loop
      vertex -34.6211 86.2683 -34.8993
      vertex -29.9881 85.7234 -41.904
      vertex -35.8069 85.7234 -36.0851
    endloop
  endfacet
  facet normal -0.218505 0.951054 -0.218522
    outer loop
      vertex -29.9881 85.7234 -41.904
      vertex -27.9036 86.2683 -41.6168
      vertex -28.2962 86.0879 -42.0094
    endloop
  endfacet
  facet normal 0.57206 -0.587788 0.57206
    outer loop
      vertex -36.039 111.125 -36.3172
      vertex -29.9881 111.577 -41.904
      vertex -35.8069 111.577 -36.0851
    endloop
  endfacet
  facet normal 0.572072 -0.587761 0.572075
    outer loop
      vertex -29.9881 111.577 -41.904
      vertex -36.039 111.125 -36.3172
      vertex -29.8869 111.525 -42.0584
    endloop
  endfacet
  facet normal 0.572061 -0.587785 0.572062
    outer loop
      vertex -36.5398 110.15 -36.818
      vertex -29.8869 111.525 -42.0584
      vertex -36.039 111.125 -36.3172
    endloop
  endfacet
  facet normal 0.572061 -0.587786 0.572061
    outer loop
      vertex -29.8223 110.15 -43.5355
      vertex -29.8869 111.525 -42.0584
      vertex -36.5398 110.15 -36.818
    endloop
  endfacet
  facet normal 0.572061 -0.587786 0.572061
    outer loop
      vertex -29.8869 111.525 -42.0584
      vertex -29.8223 110.15 -43.5355
      vertex -29.2767 111.212 -42.9899
    endloop
  endfacet
  facet normal -0.707106 -1.97652e-06 0.707107
    outer loop
      vertex -29.8223 110.15 -43.5355
      vertex -28.2962 111.212 -42.0094
      vertex -29.2767 111.212 -42.9899
    endloop
  endfacet
  facet normal -0.707107 0 0.707107
    outer loop
      vertex -27.9036 109.268 -41.6168
      vertex -28.2962 111.212 -42.0094
      vertex -29.8223 110.15 -43.5355
    endloop
  endfacet
  facet normal -0.707107 0 0.707107
    outer loop
      vertex -28.2962 111.212 -42.0094
      vertex -27.9036 109.268 -41.6168
      vertex -27.9036 111.032 -41.6168
    endloop
  endfacet
  facet normal -0.707106 1.23755e-06 0.707107
    outer loop
      vertex -27.9036 109.268 -41.6168
      vertex -29.8223 110.15 -43.5355
      vertex -29.0894 108.723 -42.8026
    endloop
  endfacet
  facet normal -0.707107 0 -0.707107
    outer loop
      vertex -27.9036 109.268 -41.6168
      vertex -34.6211 111.032 -34.8993
      vertex -27.9036 111.032 -41.6168
    endloop
  endfacet
  facet normal -0.707107 -0 -0.707107
    outer loop
      vertex -34.6211 111.032 -34.8993
      vertex -27.9036 109.268 -41.6168
      vertex -34.6211 109.268 -34.8993
    endloop
  endfacet
  facet normal -0.218508 -0.951056 -0.218508
    outer loop
      vertex -29.9881 111.577 -41.904
      vertex -34.6211 111.032 -34.8993
      vertex -35.8069 111.577 -36.0851
    endloop
  endfacet
  facet normal -0.218508 -0.951057 -0.218508
    outer loop
      vertex -34.6211 111.032 -34.8993
      vertex -29.9881 111.577 -41.904
      vertex -27.9036 111.032 -41.6168
    endloop
  endfacet
  facet normal -0.218509 -0.951057 -0.218503
    outer loop
      vertex -27.9036 111.032 -41.6168
      vertex -29.9881 111.577 -41.904
      vertex -28.2962 111.212 -42.0094
    endloop
  endfacet
  facet normal 0.572061 0.587783 0.572063
    outer loop
      vertex -35.2223 109.65 -37.6218
      vertex -36.5398 110.15 -36.818
      vertex -36.283 109.65 -36.5611
    endloop
  endfacet
  facet normal 0.572062 0.587785 0.572062
    outer loop
      vertex -29.8223 110.15 -43.5355
      vertex -35.2223 109.65 -37.6218
      vertex -32.9901 108.977 -39.1625
    endloop
  endfacet
  facet normal 0.572063 0.587784 0.572062
    outer loop
      vertex -29.8223 110.15 -43.5355
      vertex -32.9901 108.977 -39.1625
      vertex -29.0894 108.723 -42.8026
    endloop
  endfacet
  facet normal 0.572061 0.587786 0.572061
    outer loop
      vertex -35.2223 109.65 -37.6218
      vertex -29.8223 110.15 -43.5355
      vertex -36.5398 110.15 -36.818
    endloop
  endfacet
  facet normal 0.572067 0.587773 0.572068
    outer loop
      vertex -32.1491 108.723 -39.743
      vertex -29.0894 108.723 -42.8026
      vertex -32.9901 108.977 -39.1625
    endloop
  endfacet
  facet normal 0.572045 0.587817 0.572045
    outer loop
      vertex -35.8069 108.723 -36.0851
      vertex -35.5217 108.723 -36.3703
      vertex -35.8185 108.746 -36.0966
    endloop
  endfacet
  facet normal -0.218508 0.951056 -0.218508
    outer loop
      vertex -34.6211 109.268 -34.8993
      vertex -35.5217 108.723 -36.3703
      vertex -35.8069 108.723 -36.0851
    endloop
  endfacet
  facet normal -0.21851 0.951056 -0.218507
    outer loop
      vertex -34.6211 109.268 -34.8993
      vertex -33.4954 108.76 -38.2394
      vertex -35.5217 108.723 -36.3703
    endloop
  endfacet
  facet normal -0.218505 0.951058 -0.218505
    outer loop
      vertex -34.6211 109.268 -34.8993
      vertex -32.2294 108.76 -39.5054
      vertex -33.4954 108.76 -38.2394
    endloop
  endfacet
  facet normal -0.218505 0.951058 -0.218505
    outer loop
      vertex -27.9036 109.268 -41.6168
      vertex -32.2294 108.76 -39.5054
      vertex -34.6211 109.268 -34.8993
    endloop
  endfacet
  facet normal -0.218521 0.951046 -0.21854
    outer loop
      vertex -27.9036 109.268 -41.6168
      vertex -32.1555 108.734 -39.6918
      vertex -32.2294 108.76 -39.5054
    endloop
  endfacet
  facet normal -0.218517 0.95105 -0.21853
    outer loop
      vertex -27.9036 109.268 -41.6168
      vertex -32.1491 108.723 -39.743
      vertex -32.1555 108.734 -39.6918
    endloop
  endfacet
  facet normal -0.218508 0.951056 -0.218508
    outer loop
      vertex -32.1491 108.723 -39.743
      vertex -27.9036 109.268 -41.6168
      vertex -29.0894 108.723 -42.8026
    endloop
  endfacet
  facet normal 0.572061 -0.587785 0.572062
    outer loop
      vertex -48.8085 88.352 -55.8413
      vertex -52.0704 88.5766 -52.3486
      vertex -52.3025 88.1248 -52.5807
    endloop
  endfacet
  facet normal 0.57206 -0.587788 0.57206
    outer loop
      vertex -52.0704 88.5766 -52.3486
      vertex -48.8085 88.352 -55.8413
      vertex -48.5415 88.5766 -55.8775
    endloop
  endfacet
  facet normal 0.572061 -0.587785 0.572061
    outer loop
      vertex -50.2376 87.15 -55.6472
      vertex -52.3025 88.1248 -52.5807
      vertex -52.8033 87.15 -53.0815
    endloop
  endfacet
  facet normal 0.572061 -0.587786 0.572061
    outer loop
      vertex -52.3025 88.1248 -52.5807
      vertex -50.2376 87.15 -55.6472
      vertex -48.8085 88.352 -55.8413
    endloop
  endfacet
  facet normal -0.707107 0 -0.707107
    outer loop
      vertex -45.7971 88.0317 -56.2502
      vertex -49.0472 87.9457 -53
      vertex -49.0472 88.0317 -53
    endloop
  endfacet
  facet normal -0.707107 0 -0.707107
    outer loop
      vertex -45.7971 86.2683 -56.2502
      vertex -49.0472 87.9457 -53
      vertex -45.7971 88.0317 -56.2502
    endloop
  endfacet
  facet normal -0.707124 -6.59808e-05 -0.70709
    outer loop
      vertex -49.0472 87.9457 -53
      vertex -45.7971 86.2683 -56.2502
      vertex -49.0727 87.918 -52.9745
    endloop
  endfacet
  facet normal -0.707107 1.63513e-06 -0.707107
    outer loop
      vertex -50.8845 86.2683 -51.1627
      vertex -49.0727 87.918 -52.9745
      vertex -45.7971 86.2683 -56.2502
    endloop
  endfacet
  facet normal -0.707104 -3.79647e-06 -0.707109
    outer loop
      vertex -49.0727 87.918 -52.9745
      vertex -50.8845 86.2683 -51.1627
      vertex -49.8239 87.65 -52.2234
    endloop
  endfacet
  facet normal -0.707107 0 -0.707107
    outer loop
      vertex -49.8239 87.65 -52.2234
      vertex -50.8845 86.2683 -51.1627
      vertex -50.8845 87.65 -51.1627
    endloop
  endfacet
  facet normal -0.218505 -0.951058 -0.218506
    outer loop
      vertex -52.0704 88.5766 -52.3486
      vertex -50.3284 88.2635 -52.7279
      vertex -51.3891 88.2635 -51.6673
    endloop
  endfacet
  facet normal -0.218505 -0.951058 -0.218506
    outer loop
      vertex -48.5415 88.5766 -55.8775
      vertex -50.3284 88.2635 -52.7279
      vertex -52.0704 88.5766 -52.3486
    endloop
  endfacet
  facet normal -0.218511 -0.951056 -0.218509
    outer loop
      vertex -48.5415 88.5766 -55.8775
      vertex -49.0472 88.0317 -53
      vertex -50.3284 88.2635 -52.7279
    endloop
  endfacet
  facet normal -0.218508 -0.951056 -0.218508
    outer loop
      vertex -49.0472 88.0317 -53
      vertex -48.5415 88.5766 -55.8775
      vertex -45.7971 88.0317 -56.2502
    endloop
  endfacet
  facet normal 0.572061 0.587785 0.572061
    outer loop
      vertex -52.3025 86.1752 -52.5807
      vertex -50.2376 87.15 -55.6472
      vertex -52.8033 87.15 -53.0815
    endloop
  endfacet
  facet normal 0.572063 0.587784 0.572062
    outer loop
      vertex -50.2376 87.15 -55.6472
      vertex -52.3025 86.1752 -52.5807
      vertex -48.8085 85.948 -55.8413
    endloop
  endfacet
  facet normal 0.572062 0.587785 0.572061
    outer loop
      vertex -52.0704 85.7234 -52.3486
      vertex -48.8085 85.948 -55.8413
      vertex -52.3025 86.1752 -52.5807
    endloop
  endfacet
  facet normal 0.572053 0.587801 0.572054
    outer loop
      vertex -48.8085 85.948 -55.8413
      vertex -52.0704 85.7234 -52.3486
      vertex -48.5415 85.7234 -55.8775
    endloop
  endfacet
  facet normal -0.218508 0.951057 -0.218508
    outer loop
      vertex -50.8845 86.2683 -51.1627
      vertex -48.5415 85.7234 -55.8775
      vertex -52.0704 85.7234 -52.3486
    endloop
  endfacet
  facet normal -0.218508 0.951056 -0.218508
    outer loop
      vertex -48.5415 85.7234 -55.8775
      vertex -50.8845 86.2683 -51.1627
      vertex -45.7971 86.2683 -56.2502
    endloop
  endfacet
  facet normal 0.572061 -0.587785 0.572062
    outer loop
      vertex -48.8085 111.352 -55.8413
      vertex -52.0704 111.577 -52.3486
      vertex -52.3025 111.125 -52.5807
    endloop
  endfacet
  facet normal 0.57206 -0.587788 0.57206
    outer loop
      vertex -52.0704 111.577 -52.3486
      vertex -48.8085 111.352 -55.8413
      vertex -48.5415 111.577 -55.8775
    endloop
  endfacet
  facet normal 0.572061 -0.587785 0.572061
    outer loop
      vertex -50.2376 110.15 -55.6472
      vertex -52.3025 111.125 -52.5807
      vertex -52.8033 110.15 -53.0815
    endloop
  endfacet
  facet normal 0.572061 -0.587786 0.572061
    outer loop
      vertex -52.3025 111.125 -52.5807
      vertex -50.2376 110.15 -55.6472
      vertex -48.8085 111.352 -55.8413
    endloop
  endfacet
  facet normal -0.707107 -1.63513e-06 -0.707107
    outer loop
      vertex -49.0727 109.382 -52.9745
      vertex -50.8845 111.032 -51.1627
      vertex -45.7971 111.032 -56.2502
    endloop
  endfacet
  facet normal -0.707104 3.79647e-06 -0.707109
    outer loop
      vertex -50.8845 111.032 -51.1627
      vertex -49.0727 109.382 -52.9745
      vertex -49.8239 109.65 -52.2234
    endloop
  endfacet
  facet normal -0.707124 6.59808e-05 -0.70709
    outer loop
      vertex -45.7971 111.032 -56.2502
      vertex -49.0472 109.354 -53
      vertex -49.0727 109.382 -52.9745
    endloop
  endfacet
  facet normal -0.707107 0 -0.707107
    outer loop
      vertex -45.7971 109.268 -56.2502
      vertex -49.0472 109.354 -53
      vertex -45.7971 111.032 -56.2502
    endloop
  endfacet
  facet normal -0.707107 -0 -0.707107
    outer loop
      vertex -49.0472 109.354 -53
      vertex -45.7971 109.268 -56.2502
      vertex -49.0472 109.268 -53
    endloop
  endfacet
  facet normal -0.707107 -0 -0.707107
    outer loop
      vertex -50.8845 111.032 -51.1627
      vertex -49.8239 109.65 -52.2234
      vertex -50.8845 109.65 -51.1627
    endloop
  endfacet
  facet normal -0.218508 -0.951057 -0.218508
    outer loop
      vertex -48.5415 111.577 -55.8775
      vertex -50.8845 111.032 -51.1627
      vertex -52.0704 111.577 -52.3486
    endloop
  endfacet
  facet normal -0.218508 -0.951056 -0.218508
    outer loop
      vertex -50.8845 111.032 -51.1627
      vertex -48.5415 111.577 -55.8775
      vertex -45.7971 111.032 -56.2502
    endloop
  endfacet
  facet normal 0.572063 0.587782 0.572063
    outer loop
      vertex -52.3025 109.175 -52.5807
      vertex -50.2376 110.15 -55.6472
      vertex -52.8033 110.15 -53.0815
    endloop
  endfacet
  facet normal 0.572062 0.587783 0.572063
    outer loop
      vertex -50.2376 110.15 -55.6472
      vertex -52.3025 109.175 -52.5807
      vertex -48.8085 108.948 -55.8413
    endloop
  endfacet
  facet normal 0.572061 0.587785 0.572062
    outer loop
      vertex -52.0704 108.723 -52.3486
      vertex -48.8085 108.948 -55.8413
      vertex -52.3025 109.175 -52.5807
    endloop
  endfacet
  facet normal 0.57206 0.587788 0.57206
    outer loop
      vertex -48.8085 108.948 -55.8413
      vertex -52.0704 108.723 -52.3486
      vertex -48.5415 108.723 -55.8775
    endloop
  endfacet
  facet normal -0.21851 0.951055 -0.218511
    outer loop
      vertex -50.3284 109.036 -52.7279
      vertex -52.0704 108.723 -52.3486
      vertex -51.3891 109.036 -51.6673
    endloop
  endfacet
  facet normal -0.21851 0.951055 -0.21851
    outer loop
      vertex -50.3284 109.036 -52.7279
      vertex -48.5415 108.723 -55.8775
      vertex -52.0704 108.723 -52.3486
    endloop
  endfacet
  facet normal -0.218505 0.951057 -0.218508
    outer loop
      vertex -49.0472 109.268 -53
      vertex -48.5415 108.723 -55.8775
      vertex -50.3284 109.036 -52.7279
    endloop
  endfacet
  facet normal -0.218508 0.951056 -0.218508
    outer loop
      vertex -48.5415 108.723 -55.8775
      vertex -49.0472 109.268 -53
      vertex -45.7971 109.268 -56.2502
    endloop
  endfacet
  facet normal -0.707112 -6.85268e-06 0.707101
    outer loop
      vertex -41.145 111.436 -41.4232
      vertex -41.1781 111.882 -41.4563
      vertex -42.5022 113.568 -42.7804
    endloop
  endfacet
  facet normal -0.707107 0 0.707107
    outer loop
      vertex -41.4345 112.696 -41.7127
      vertex -41.6465 113.029 -41.9247
      vertex -42.5022 113.568 -42.7804
    endloop
  endfacet
  facet normal -0.707107 0 0.707107
    outer loop
      vertex -42.5022 109.65 -42.7804
      vertex -41.145 111.436 -41.4232
      vertex -42.5022 113.568 -42.7804
    endloop
  endfacet
  facet normal -0.707107 0 0.707107
    outer loop
      vertex -41.145 111.436 -41.4232
      vertex -42.5022 109.65 -42.7804
      vertex -41.145 109.65 -41.4232
    endloop
  endfacet
  facet normal -0.707107 0 0.707107
    outer loop
      vertex -42.5022 87.65 -42.7804
      vertex -41.145 85.8639 -41.4232
      vertex -41.145 87.65 -41.4232
    endloop
  endfacet
  facet normal -0.707107 0 0.707107
    outer loop
      vertex -41.145 85.8639 -41.4232
      vertex -42.5022 87.65 -42.7804
      vertex -42.5022 83.7322 -42.7804
    endloop
  endfacet
  facet normal -0.707107 0 0.707107
    outer loop
      vertex -41.6465 84.271 -41.9247
      vertex -41.4345 84.604 -41.7127
      vertex -42.5022 83.7322 -42.7804
    endloop
  endfacet
  facet normal -0.707103 8.28547e-06 0.707111
    outer loop
      vertex -41.1781 111.882 -41.4563
      vertex -41.2761 112.308 -41.5542
      vertex -42.5022 113.568 -42.7804
    endloop
  endfacet
  facet normal -0.707107 0 0.707107
    outer loop
      vertex -41.2761 112.308 -41.5542
      vertex -41.4345 112.696 -41.7127
      vertex -42.5022 113.568 -42.7804
    endloop
  endfacet
  facet normal -0.707107 0 0.707107
    outer loop
      vertex -41.9028 113.292 -42.181
      vertex -42.1923 113.475 -42.4705
      vertex -42.5022 113.568 -42.7804
    endloop
  endfacet
  facet normal -0.707107 0 0.707107
    outer loop
      vertex -41.4345 84.604 -41.7127
      vertex -41.2761 84.992 -41.5542
      vertex -42.5022 83.7322 -42.7804
    endloop
  endfacet
  facet normal -0.707112 6.85281e-06 0.707101
    outer loop
      vertex -41.1781 85.4182 -41.4563
      vertex -41.145 85.8639 -41.4232
      vertex -42.5022 83.7322 -42.7804
    endloop
  endfacet
  facet normal -0.707107 0 0.707107
    outer loop
      vertex -53.3005 104.751 -53.5787
      vertex -51.3891 108.728 -51.6673
      vertex -52.1918 107.467 -52.47
    endloop
  endfacet
  facet normal -0.707107 0 0.707107
    outer loop
      vertex -53.9857 101.769 -54.2639
      vertex -51.3891 108.728 -51.6673
      vertex -53.3005 104.751 -53.5787
    endloop
  endfacet
  facet normal -0.707107 0 0.707107
    outer loop
      vertex -54.2175 98.65 -54.4957
      vertex -51.3891 108.728 -51.6673
      vertex -53.9857 101.769 -54.2639
    endloop
  endfacet
  facet normal -0.707107 0 0.707107
    outer loop
      vertex -53.9857 95.5313 -54.2639
      vertex -51.3891 108.728 -51.6673
      vertex -54.2175 98.65 -54.4957
    endloop
  endfacet
  facet normal -0.707107 0 0.707107
    outer loop
      vertex -51.3891 88.5724 -51.6673
      vertex -53.9857 95.5313 -54.2639
      vertex -53.3005 92.549 -53.5787
    endloop
  endfacet
  facet normal -0.707107 0 0.707107
    outer loop
      vertex -51.3891 88.5724 -51.6673
      vertex -53.3005 92.549 -53.5787
      vertex -52.1918 89.8332 -52.47
    endloop
  endfacet
  facet normal -0.707107 0 0.707107
    outer loop
      vertex -53.9857 95.5313 -54.2639
      vertex -51.3891 88.5724 -51.6673
      vertex -51.3891 108.728 -51.6673
    endloop
  endfacet
  facet normal -0.707106 6.01536e-07 0.707107
    outer loop
      vertex -42.5022 109.65 -42.7804
      vertex -44.7196 113.568 -44.9978
      vertex -46.8885 112.916 -47.1667
    endloop
  endfacet
  facet normal -0.707107 -4.47502e-07 0.707107
    outer loop
      vertex -42.5022 109.65 -42.7804
      vertex -46.8885 112.916 -47.1667
      vertex -48.9142 111.64 -49.1924
    endloop
  endfacet
  facet normal -0.707107 -1.43832e-06 0.707107
    outer loop
      vertex -42.5022 109.65 -42.7804
      vertex -48.9142 111.64 -49.1924
      vertex -50.7081 109.797 -50.9863
    endloop
  endfacet
  facet normal -0.707107 0 0.707107
    outer loop
      vertex -42.5022 109.65 -42.7804
      vertex -50.7081 109.797 -50.9863
      vertex -50.8018 109.65 -51.08
    endloop
  endfacet
  facet normal -0.707107 0 0.707107
    outer loop
      vertex -44.7196 113.568 -44.9978
      vertex -42.5022 109.65 -42.7804
      vertex -42.5022 113.568 -42.7804
    endloop
  endfacet
  facet normal -0.707107 0 0.707107
    outer loop
      vertex -50.7081 87.5028 -50.9863
      vertex -42.5022 87.65 -42.7804
      vertex -50.8018 87.65 -51.08
    endloop
  endfacet
  facet normal -0.707107 1.43832e-06 0.707107
    outer loop
      vertex -48.9142 85.6596 -49.1924
      vertex -42.5022 87.65 -42.7804
      vertex -50.7081 87.5028 -50.9863
    endloop
  endfacet
  facet normal -0.707107 4.47502e-07 0.707107
    outer loop
      vertex -46.8885 84.3842 -47.1667
      vertex -42.5022 87.65 -42.7804
      vertex -48.9142 85.6596 -49.1924
    endloop
  endfacet
  facet normal -0.707106 -6.01534e-07 0.707107
    outer loop
      vertex -44.7196 83.7322 -44.9978
      vertex -42.5022 87.65 -42.7804
      vertex -46.8885 84.3842 -47.1667
    endloop
  endfacet
  facet normal -0.707107 0 0.707107
    outer loop
      vertex -42.5022 87.65 -42.7804
      vertex -44.7196 83.7322 -44.9978
      vertex -42.5022 83.7322 -42.7804
    endloop
  endfacet
  facet normal -0.707107 0 0.707107
    outer loop
      vertex -42.1923 83.8253 -42.4705
      vertex -41.9028 84.0076 -42.181
      vertex -42.5022 83.7322 -42.7804
    endloop
  endfacet
  facet normal -0.707107 0 0.707107
    outer loop
      vertex -41.6465 113.029 -41.9247
      vertex -41.9028 113.292 -42.181
      vertex -42.5022 113.568 -42.7804
    endloop
  endfacet
  facet normal -0.707107 0 0.707107
    outer loop
      vertex -41.9028 84.0076 -42.181
      vertex -41.6465 84.271 -41.9247
      vertex -42.5022 83.7322 -42.7804
    endloop
  endfacet
  facet normal -0.707103 -8.28528e-06 0.707111
    outer loop
      vertex -41.2761 84.992 -41.5542
      vertex -41.1781 85.4182 -41.4563
      vertex -42.5022 83.7322 -42.7804
    endloop
  endfacet
  facet normal 0.905896 0 -0.4235
    outer loop
      vertex -7.5 120.15 0.5
      vertex -23.4584 123.15 -33.636
      vertex -7.5 123.15 0.5
    endloop
  endfacet
  facet normal 0.905896 0 -0.4235
    outer loop
      vertex -23.4584 123.15 -33.636
      vertex -7.5 120.15 0.5
      vertex -23.4584 120.15 -33.636
    endloop
  endfacet
  facet normal -0.707107 0 -0.707107
    outer loop
      vertex -33.3579 120.15 -33.636
      vertex -28.4081 123.15 -38.5858
      vertex -28.4081 120.15 -38.5858
    endloop
  endfacet
  facet normal -0.707107 0 -0.707107
    outer loop
      vertex -28.4081 123.15 -38.5858
      vertex -33.3579 120.15 -33.636
      vertex -33.3579 123.15 -33.636
    endloop
  endfacet
  facet normal 0.707107 0 -0.707107
    outer loop
      vertex -23.4584 120.15 -33.636
      vertex -28.4081 123.15 -38.5858
      vertex -23.4584 123.15 -33.636
    endloop
  endfacet
  facet normal 0.707107 0 -0.707107
    outer loop
      vertex -28.4081 123.15 -38.5858
      vertex -23.4584 120.15 -33.636
      vertex -28.4081 120.15 -38.5858
    endloop
  endfacet
  facet normal -0 0 1
    outer loop
      vertex -14.5 123.15 7.5
      vertex -7.5 120.15 7.5
      vertex -7.5 123.15 7.5
    endloop
  endfacet
  facet normal 0 0 1
    outer loop
      vertex -7.5 120.15 7.5
      vertex -14.5 123.15 7.5
      vertex -14.5 120.15 7.5
    endloop
  endfacet
  facet normal 1 -0 0
    outer loop
      vertex -7.5 120.15 7.5
      vertex -7.5 123.15 0.5
      vertex -7.5 123.15 7.5
    endloop
  endfacet
  facet normal 1 0 0
    outer loop
      vertex -7.5 123.15 0.5
      vertex -7.5 120.15 7.5
      vertex -7.5 120.15 0.5
    endloop
  endfacet
  facet normal -0.909033 0 0.416725
    outer loop
      vertex -33.3579 120.15 -33.636
      vertex -14.5 123.15 7.5
      vertex -33.3579 123.15 -33.636
    endloop
  endfacet
  facet normal -0.909033 0 0.416725
    outer loop
      vertex -14.5 123.15 7.5
      vertex -33.3579 120.15 -33.636
      vertex -14.5 120.15 7.5
    endloop
  endfacet
  facet normal 0 1 -0
    outer loop
      vertex -11.8147 123.15 3.75904
      vertex -14.5 123.15 7.5
      vertex -7.5 123.15 7.5
    endloop
  endfacet
  facet normal 0 1 0
    outer loop
      vertex -14.5 123.15 7.5
      vertex -11.8147 123.15 3.75904
      vertex -13 123.15 4.25
    endloop
  endfacet
  facet normal 0 1 0
    outer loop
      vertex -7.5 123.15 7.5
      vertex -11.409 123.15 3.59099
      vertex -11.8147 123.15 3.75904
    endloop
  endfacet
  facet normal 0 1 0
    outer loop
      vertex -7.5 123.15 7.5
      vertex -11.241 123.15 3.18529
      vertex -11.409 123.15 3.59099
    endloop
  endfacet
  facet normal 0 1 -0
    outer loop
      vertex -7.5 123.15 0.5
      vertex -11.241 123.15 3.18529
      vertex -7.5 123.15 7.5
    endloop
  endfacet
  facet normal 0 1 0
    outer loop
      vertex -11.241 123.15 3.18529
      vertex -7.5 123.15 0.5
      vertex -10.75 123.15 2
    endloop
  endfacet
  facet normal 0 1 0
    outer loop
      vertex -10.75 123.15 2
      vertex -7.5 123.15 0.5
      vertex -10.918 123.15 1.5943
    endloop
  endfacet
  facet normal 0 1 0
    outer loop
      vertex -7.5 123.15 0.5
      vertex -11.409 123.15 0.409009
      vertex -10.918 123.15 1.5943
    endloop
  endfacet
  facet normal 0 1 0
    outer loop
      vertex -7.5 123.15 0.5
      vertex -12.5943 123.15 -0.0819527
      vertex -11.409 123.15 0.409009
    endloop
  endfacet
  facet normal 0 1 0
    outer loop
      vertex -7.5 123.15 0.5
      vertex -13 123.15 -0.25
      vertex -12.5943 123.15 -0.0819527
    endloop
  endfacet
  facet normal 0 1 0
    outer loop
      vertex -23.4584 123.15 -33.636
      vertex -13 123.15 -0.25
      vertex -7.5 123.15 0.5
    endloop
  endfacet
  facet normal 0 1 0
    outer loop
      vertex -13 123.15 -0.25
      vertex -23.4584 123.15 -33.636
      vertex -27.625 123.15 -32.4845
    endloop
  endfacet
  facet normal 0 1 0
    outer loop
      vertex -27.625 123.15 -32.4845
      vertex -23.4584 123.15 -33.636
      vertex -27.4019 123.15 -32.8709
    endloop
  endfacet
  facet normal 0 1 0
    outer loop
      vertex -23.4584 123.15 -33.636
      vertex -26.75 123.15 -34
      vertex -27.4019 123.15 -32.8709
    endloop
  endfacet
  facet normal 0 1 0
    outer loop
      vertex -23.4584 123.15 -33.636
      vertex -26.9731 123.15 -34.3865
      vertex -26.75 123.15 -34
    endloop
  endfacet
  facet normal 0 1 0
    outer loop
      vertex -23.4584 123.15 -33.636
      vertex -27.625 123.15 -35.5155
      vertex -26.9731 123.15 -34.3865
    endloop
  endfacet
  facet normal 0 1 0
    outer loop
      vertex -27.625 123.15 -35.5155
      vertex -28.4081 123.15 -38.5858
      vertex -29.375 123.15 -35.5155
    endloop
  endfacet
  facet normal 0 1 0
    outer loop
      vertex -28.4081 123.15 -38.5858
      vertex -27.625 123.15 -35.5155
      vertex -23.4584 123.15 -33.636
    endloop
  endfacet
  facet normal 0 1 -0
    outer loop
      vertex -14.1853 123.15 3.75904
      vertex -14.5 123.15 7.5
      vertex -13 123.15 4.25
    endloop
  endfacet
  facet normal 0 1 0
    outer loop
      vertex -14.591 123.15 3.59099
      vertex -14.5 123.15 7.5
      vertex -14.1853 123.15 3.75904
    endloop
  endfacet
  facet normal 0 1 0
    outer loop
      vertex -14.759 123.15 3.18529
      vertex -14.5 123.15 7.5
      vertex -14.591 123.15 3.59099
    endloop
  endfacet
  facet normal 0 1 0
    outer loop
      vertex -15.25 123.15 2
      vertex -14.5 123.15 7.5
      vertex -14.759 123.15 3.18529
    endloop
  endfacet
  facet normal 0 1 0
    outer loop
      vertex -29.375 123.15 -32.4845
      vertex -15.082 123.15 1.5943
      vertex -14.591 123.15 0.409009
    endloop
  endfacet
  facet normal 0 1 0
    outer loop
      vertex -27.625 123.15 -32.4845
      vertex -13.4057 123.15 -0.0819527
      vertex -13 123.15 -0.25
    endloop
  endfacet
  facet normal 0 1 0
    outer loop
      vertex -27.625 123.15 -32.4845
      vertex -14.591 123.15 0.409009
      vertex -13.4057 123.15 -0.0819527
    endloop
  endfacet
  facet normal 0 1 0
    outer loop
      vertex -29.375 123.15 -32.4845
      vertex -14.591 123.15 0.409009
      vertex -27.625 123.15 -32.4845
    endloop
  endfacet
  facet normal 0 1 0
    outer loop
      vertex -33.3579 123.15 -33.636
      vertex -15.082 123.15 1.5943
      vertex -29.375 123.15 -32.4845
    endloop
  endfacet
  facet normal 0 1 0
    outer loop
      vertex -15.082 123.15 1.5943
      vertex -33.3579 123.15 -33.636
      vertex -15.25 123.15 2
    endloop
  endfacet
  facet normal 0 1 0
    outer loop
      vertex -33.3579 123.15 -33.636
      vertex -29.375 123.15 -32.4845
      vertex -29.5981 123.15 -32.8709
    endloop
  endfacet
  facet normal 0 1 -0
    outer loop
      vertex -15.25 123.15 2
      vertex -33.3579 123.15 -33.636
      vertex -14.5 123.15 7.5
    endloop
  endfacet
  facet normal 0 1 -0
    outer loop
      vertex -30.25 123.15 -34
      vertex -33.3579 123.15 -33.636
      vertex -29.5981 123.15 -32.8709
    endloop
  endfacet
  facet normal 0 1 0
    outer loop
      vertex -30.0269 123.15 -34.3865
      vertex -33.3579 123.15 -33.636
      vertex -30.25 123.15 -34
    endloop
  endfacet
  facet normal 0 1 0
    outer loop
      vertex -29.375 123.15 -35.5155
      vertex -33.3579 123.15 -33.636
      vertex -30.0269 123.15 -34.3865
    endloop
  endfacet
  facet normal 0 1 0
    outer loop
      vertex -33.3579 123.15 -33.636
      vertex -29.375 123.15 -35.5155
      vertex -28.4081 123.15 -38.5858
    endloop
  endfacet
  facet normal 0 -1 0
    outer loop
      vertex -11.8624 120.15 3.77881
      vertex -14.5 120.15 7.5
      vertex -13 120.15 4.25
    endloop
  endfacet
  facet normal 0 -1 0
    outer loop
      vertex -14.5 120.15 7.5
      vertex -14.1376 120.15 3.77881
      vertex -13 120.15 4.25
    endloop
  endfacet
  facet normal 0 -1 -0
    outer loop
      vertex -14.5 120.15 7.5
      vertex -14.591 120.15 3.59099
      vertex -14.1376 120.15 3.77881
    endloop
  endfacet
  facet normal 0 -1 0
    outer loop
      vertex -14.5 120.15 7.5
      vertex -14.7788 120.15 3.13756
      vertex -14.591 120.15 3.59099
    endloop
  endfacet
  facet normal 0 -1 0
    outer loop
      vertex -14.5 120.15 7.5
      vertex -15.25 120.15 2
      vertex -14.7788 120.15 3.13756
    endloop
  endfacet
  facet normal 0 -1 -0
    outer loop
      vertex -14.591 120.15 0.409009
      vertex -27.625 120.15 -32.4845
      vertex -13.4534 120.15 -0.0621824
    endloop
  endfacet
  facet normal 0 -1 0
    outer loop
      vertex -27.625 120.15 -32.4845
      vertex -14.591 120.15 0.409009
      vertex -29.375 120.15 -32.4845
    endloop
  endfacet
  facet normal 0 -1 -0
    outer loop
      vertex -15.0622 120.15 1.54657
      vertex -29.375 120.15 -32.4845
      vertex -14.591 120.15 0.409009
    endloop
  endfacet
  facet normal 0 -1 0
    outer loop
      vertex -33.3579 120.15 -33.636
      vertex -15.0622 120.15 1.54657
      vertex -15.25 120.15 2
    endloop
  endfacet
  facet normal 0 -1 0
    outer loop
      vertex -33.3579 120.15 -33.636
      vertex -15.25 120.15 2
      vertex -14.5 120.15 7.5
    endloop
  endfacet
  facet normal 0 -1 0
    outer loop
      vertex -15.0622 120.15 1.54657
      vertex -33.3579 120.15 -33.636
      vertex -29.375 120.15 -32.4845
    endloop
  endfacet
  facet normal 0 -1 0
    outer loop
      vertex -29.375 120.15 -32.4845
      vertex -33.3579 120.15 -33.636
      vertex -29.6244 120.15 -32.9164
    endloop
  endfacet
  facet normal 0 -1 0
    outer loop
      vertex -33.3579 120.15 -33.636
      vertex -30.25 120.15 -34
      vertex -29.6244 120.15 -32.9164
    endloop
  endfacet
  facet normal 0 -1 0
    outer loop
      vertex -33.3579 120.15 -33.636
      vertex -30.0006 120.15 -34.4319
      vertex -30.25 120.15 -34
    endloop
  endfacet
  facet normal 0 -1 0
    outer loop
      vertex -33.3579 120.15 -33.636
      vertex -29.375 120.15 -35.5155
      vertex -30.0006 120.15 -34.4319
    endloop
  endfacet
  facet normal 0 -1 0
    outer loop
      vertex -29.375 120.15 -35.5155
      vertex -28.4081 120.15 -38.5858
      vertex -27.625 120.15 -35.5155
    endloop
  endfacet
  facet normal 0 -1 0
    outer loop
      vertex -28.4081 120.15 -38.5858
      vertex -29.375 120.15 -35.5155
      vertex -33.3579 120.15 -33.636
    endloop
  endfacet
  facet normal 0 -1 0
    outer loop
      vertex -14.5 120.15 7.5
      vertex -11.8624 120.15 3.77881
      vertex -7.5 120.15 7.5
    endloop
  endfacet
  facet normal 0 -1 0
    outer loop
      vertex -11.409 120.15 3.59099
      vertex -7.5 120.15 7.5
      vertex -11.8624 120.15 3.77881
    endloop
  endfacet
  facet normal 0 -1 0
    outer loop
      vertex -11.2212 120.15 3.13756
      vertex -7.5 120.15 7.5
      vertex -11.409 120.15 3.59099
    endloop
  endfacet
  facet normal 0 -1 0
    outer loop
      vertex -7.5 120.15 0.5
      vertex -11.2212 120.15 3.13756
      vertex -10.75 120.15 2
    endloop
  endfacet
  facet normal 0 -1 0
    outer loop
      vertex -7.5 120.15 0.5
      vertex -10.75 120.15 2
      vertex -10.9378 120.15 1.54657
    endloop
  endfacet
  facet normal 0 -1 0
    outer loop
      vertex -11.2212 120.15 3.13756
      vertex -7.5 120.15 0.5
      vertex -7.5 120.15 7.5
    endloop
  endfacet
  facet normal 0 -1 0
    outer loop
      vertex -11.409 120.15 0.409009
      vertex -7.5 120.15 0.5
      vertex -10.9378 120.15 1.54657
    endloop
  endfacet
  facet normal 0 -1 0
    outer loop
      vertex -12.5466 120.15 -0.0621824
      vertex -7.5 120.15 0.5
      vertex -11.409 120.15 0.409009
    endloop
  endfacet
  facet normal 0 -1 0
    outer loop
      vertex -13 120.15 -0.25
      vertex -7.5 120.15 0.5
      vertex -12.5466 120.15 -0.0621824
    endloop
  endfacet
  facet normal 0 -1 0
    outer loop
      vertex -23.4584 120.15 -33.636
      vertex -13.4534 120.15 -0.0621824
      vertex -27.625 120.15 -32.4845
    endloop
  endfacet
  facet normal 0 -1 -0
    outer loop
      vertex -13.4534 120.15 -0.0621824
      vertex -23.4584 120.15 -33.636
      vertex -13 120.15 -0.25
    endloop
  endfacet
  facet normal 0 -1 0
    outer loop
      vertex -23.4584 120.15 -33.636
      vertex -27.625 120.15 -32.4845
      vertex -27.3756 120.15 -32.9164
    endloop
  endfacet
  facet normal 0 -1 -0
    outer loop
      vertex -13 120.15 -0.25
      vertex -23.4584 120.15 -33.636
      vertex -7.5 120.15 0.5
    endloop
  endfacet
  facet normal 0 -1 0
    outer loop
      vertex -26.75 120.15 -34
      vertex -23.4584 120.15 -33.636
      vertex -27.3756 120.15 -32.9164
    endloop
  endfacet
  facet normal 0 -1 0
    outer loop
      vertex -26.9994 120.15 -34.4319
      vertex -23.4584 120.15 -33.636
      vertex -26.75 120.15 -34
    endloop
  endfacet
  facet normal 0 -1 0
    outer loop
      vertex -27.625 120.15 -35.5155
      vertex -23.4584 120.15 -33.636
      vertex -26.9994 120.15 -34.4319
    endloop
  endfacet
  facet normal 0 -1 0
    outer loop
      vertex -23.4584 120.15 -33.636
      vertex -27.625 120.15 -35.5155
      vertex -28.4081 120.15 -38.5858
    endloop
  endfacet
  facet normal -0.707107 0 0.707107
    outer loop
      vertex -41.145 87.65 -41.4232
      vertex -36.5398 87.15 -36.818
      vertex -36.283 87.65 -36.5611
    endloop
  endfacet
  facet normal -0.707107 0 0.707107
    outer loop
      vertex -41.145 85.8639 -41.4232
      vertex -36.5398 87.15 -36.818
      vertex -41.145 87.65 -41.4232
    endloop
  endfacet
  facet normal -0.707107 0 0.707107
    outer loop
      vertex -36.5398 87.15 -36.818
      vertex -41.145 85.8639 -41.4232
      vertex -36.039 86.1752 -36.3172
    endloop
  endfacet
  facet normal -0.707107 6.08041e-06 0.707107
    outer loop
      vertex -41.1781 85.4182 -41.4563
      vertex -36.039 86.1752 -36.3172
      vertex -41.145 85.8639 -41.4232
    endloop
  endfacet
  facet normal -0.707107 2.50684e-07 0.707107
    outer loop
      vertex -36.039 86.1752 -36.3172
      vertex -41.1781 85.4182 -41.4563
      vertex -35.8069 85.7234 -36.0851
    endloop
  endfacet
  facet normal -0.707107 0 0.707107
    outer loop
      vertex -35.8185 108.746 -36.0966
      vertex -35.8069 88.5766 -36.0851
      vertex -35.8069 108.723 -36.0851
    endloop
  endfacet
  facet normal -0.707107 0 0.707107
    outer loop
      vertex -35.8069 88.5766 -36.0851
      vertex -35.8185 108.746 -36.0966
      vertex -35.8185 88.5542 -36.0966
    endloop
  endfacet
  facet normal -0.707107 -6.0803e-06 0.707107
    outer loop
      vertex -36.039 111.125 -36.3172
      vertex -41.1781 111.882 -41.4563
      vertex -41.145 111.436 -41.4232
    endloop
  endfacet
  facet normal -0.707107 -2.50684e-07 0.707107
    outer loop
      vertex -41.1781 111.882 -41.4563
      vertex -36.039 111.125 -36.3172
      vertex -35.8069 111.577 -36.0851
    endloop
  endfacet
  facet normal -0.707107 0 0.707107
    outer loop
      vertex -41.145 111.436 -41.4232
      vertex -36.5398 110.15 -36.818
      vertex -36.039 111.125 -36.3172
    endloop
  endfacet
  facet normal -0.707107 0 0.707107
    outer loop
      vertex -41.145 109.65 -41.4232
      vertex -36.5398 110.15 -36.818
      vertex -41.145 111.436 -41.4232
    endloop
  endfacet
  facet normal -0.707107 0 0.707107
    outer loop
      vertex -36.5398 110.15 -36.818
      vertex -41.145 109.65 -41.4232
      vertex -36.283 109.65 -36.5611
    endloop
  endfacet
  facet normal -0.707107 0 0.707107
    outer loop
      vertex -54.2175 113.65 -54.4957
      vertex -44.7196 113.568 -44.9978
      vertex -33.0043 113.65 -33.2825
    endloop
  endfacet
  facet normal -0.707107 4.02151e-06 0.707107
    outer loop
      vertex -54.2175 113.65 -54.4957
      vertex -46.8885 112.916 -47.1667
      vertex -44.7196 113.568 -44.9978
    endloop
  endfacet
  facet normal -0.707107 5.04296e-07 0.707107
    outer loop
      vertex -54.2175 113.65 -54.4957
      vertex -48.9142 111.64 -49.1924
      vertex -46.8885 112.916 -47.1667
    endloop
  endfacet
  facet normal -0.707107 1.27427e-06 0.707107
    outer loop
      vertex -54.2175 113.65 -54.4957
      vertex -52.0704 111.577 -52.3486
      vertex -48.9142 111.64 -49.1924
    endloop
  endfacet
  facet normal -0.707109 -3.55961e-06 0.707104
    outer loop
      vertex -54.2175 113.65 -54.4957
      vertex -52.3025 111.125 -52.5807
      vertex -52.0704 111.577 -52.3486
    endloop
  endfacet
  facet normal -0.707107 0 0.707107
    outer loop
      vertex -54.2175 113.65 -54.4957
      vertex -52.8033 110.15 -53.0815
      vertex -52.3025 111.125 -52.5807
    endloop
  endfacet
  facet normal -0.707113 -8.61398e-07 0.7071
    outer loop
      vertex -52.3025 109.175 -52.5807
      vertex -52.1918 107.467 -52.47
      vertex -52.0704 108.723 -52.3486
    endloop
  endfacet
  facet normal -0.707107 0 0.707107
    outer loop
      vertex -52.8033 110.15 -53.0815
      vertex -52.1918 107.467 -52.47
      vertex -52.3025 109.175 -52.5807
    endloop
  endfacet
  facet normal -0.707107 0 0.707107
    outer loop
      vertex -53.3005 104.751 -53.5787
      vertex -52.8033 110.15 -53.0815
      vertex -54.2175 113.65 -54.4957
    endloop
  endfacet
  facet normal -0.707107 0 0.707107
    outer loop
      vertex -52.8033 110.15 -53.0815
      vertex -53.3005 104.751 -53.5787
      vertex -52.1918 107.467 -52.47
    endloop
  endfacet
  facet normal -0.707107 0 0.707107
    outer loop
      vertex -54.2175 113.65 -54.4957
      vertex -53.9857 101.769 -54.2639
      vertex -53.3005 104.751 -53.5787
    endloop
  endfacet
  facet normal -0.707107 0 0.707107
    outer loop
      vertex -53.9857 101.769 -54.2639
      vertex -54.2175 113.65 -54.4957
      vertex -54.2175 98.65 -54.4957
    endloop
  endfacet
  facet normal -0.707107 0 0.707107
    outer loop
      vertex -42.5022 113.568 -42.7804
      vertex -33.0043 113.65 -33.2825
      vertex -44.7196 113.568 -44.9978
    endloop
  endfacet
  facet normal -0.707107 0 0.707107
    outer loop
      vertex -42.1923 113.475 -42.4705
      vertex -33.0043 113.65 -33.2825
      vertex -42.5022 113.568 -42.7804
    endloop
  endfacet
  facet normal -0.707107 0 0.707107
    outer loop
      vertex -41.9028 113.292 -42.181
      vertex -33.0043 113.65 -33.2825
      vertex -42.1923 113.475 -42.4705
    endloop
  endfacet
  facet normal -0.707107 0 0.707107
    outer loop
      vertex -41.6465 113.029 -41.9247
      vertex -33.0043 113.65 -33.2825
      vertex -41.9028 113.292 -42.181
    endloop
  endfacet
  facet normal -0.707107 0 0.707107
    outer loop
      vertex -35.8069 111.577 -36.0851
      vertex -41.6465 113.029 -41.9247
      vertex -41.4345 112.696 -41.7127
    endloop
  endfacet
  facet normal -0.707107 0 0.707107
    outer loop
      vertex -35.8069 111.577 -36.0851
      vertex -41.4345 112.696 -41.7127
      vertex -41.2761 112.308 -41.5542
    endloop
  endfacet
  facet normal -0.707106 6.53014e-06 0.707107
    outer loop
      vertex -35.8069 111.577 -36.0851
      vertex -41.2761 112.308 -41.5542
      vertex -41.1781 111.882 -41.4563
    endloop
  endfacet
  facet normal -0.707107 0 0.707107
    outer loop
      vertex -41.6465 113.029 -41.9247
      vertex -35.8069 111.577 -36.0851
      vertex -33.0043 113.65 -33.2825
    endloop
  endfacet
  facet normal -0.707107 0 0.707107
    outer loop
      vertex -34.6211 111.032 -34.8993
      vertex -33.0043 113.65 -33.2825
      vertex -35.8069 111.577 -36.0851
    endloop
  endfacet
  facet normal -0.707107 0 0.707107
    outer loop
      vertex -34.6211 109.268 -34.8993
      vertex -33.0043 113.65 -33.2825
      vertex -34.6211 111.032 -34.8993
    endloop
  endfacet
  facet normal -0.707107 0 0.707107
    outer loop
      vertex -35.8069 88.5766 -36.0851
      vertex -34.6211 109.268 -34.8993
      vertex -35.8069 108.723 -36.0851
    endloop
  endfacet
  facet normal -0.707107 0 0.707107
    outer loop
      vertex -34.6211 88.0317 -34.8993
      vertex -34.6211 109.268 -34.8993
      vertex -35.8069 88.5766 -36.0851
    endloop
  endfacet
  facet normal -0.707107 0 0.707107
    outer loop
      vertex -34.6211 109.268 -34.8993
      vertex -34.6211 88.0317 -34.8993
      vertex -33.0043 113.65 -33.2825
    endloop
  endfacet
  facet normal -0.707107 0 0.707107
    outer loop
      vertex -33.0043 83.65 -33.2825
      vertex -34.6211 88.0317 -34.8993
      vertex -34.6211 86.2683 -34.8993
    endloop
  endfacet
  facet normal -0.707106 -6.53002e-06 0.707107
    outer loop
      vertex -41.2761 84.992 -41.5542
      vertex -35.8069 85.7234 -36.0851
      vertex -41.1781 85.4182 -41.4563
    endloop
  endfacet
  facet normal -0.707107 0 0.707107
    outer loop
      vertex -41.4345 84.604 -41.7127
      vertex -35.8069 85.7234 -36.0851
      vertex -41.2761 84.992 -41.5542
    endloop
  endfacet
  facet normal -0.707107 0 0.707107
    outer loop
      vertex -41.6465 84.271 -41.9247
      vertex -35.8069 85.7234 -36.0851
      vertex -41.4345 84.604 -41.7127
    endloop
  endfacet
  facet normal -0.707107 0 0.707107
    outer loop
      vertex -33.0043 83.65 -33.2825
      vertex -41.6465 84.271 -41.9247
      vertex -41.9028 84.0076 -42.181
    endloop
  endfacet
  facet normal -0.707107 0 0.707107
    outer loop
      vertex -33.0043 83.65 -33.2825
      vertex -41.9028 84.0076 -42.181
      vertex -42.1923 83.8253 -42.4705
    endloop
  endfacet
  facet normal -0.707107 0 0.707107
    outer loop
      vertex -33.0043 83.65 -33.2825
      vertex -42.1923 83.8253 -42.4705
      vertex -42.5022 83.7322 -42.7804
    endloop
  endfacet
  facet normal -0.707107 0 0.707107
    outer loop
      vertex -34.6211 88.0317 -34.8993
      vertex -33.0043 83.65 -33.2825
      vertex -33.0043 113.65 -33.2825
    endloop
  endfacet
  facet normal -0.707107 0 0.707107
    outer loop
      vertex -35.8069 85.7234 -36.0851
      vertex -33.0043 83.65 -33.2825
      vertex -34.6211 86.2683 -34.8993
    endloop
  endfacet
  facet normal -0.707107 0 0.707107
    outer loop
      vertex -41.6465 84.271 -41.9247
      vertex -33.0043 83.65 -33.2825
      vertex -35.8069 85.7234 -36.0851
    endloop
  endfacet
  facet normal -0.707107 0 0.707107
    outer loop
      vertex -33.0043 83.65 -33.2825
      vertex -42.5022 83.7322 -42.7804
      vertex -54.2175 83.65 -54.4957
    endloop
  endfacet
  facet normal -0.707107 -4.74162e-06 0.707107
    outer loop
      vertex -50.8845 111.032 -51.1627
      vertex -48.9142 111.64 -49.1924
      vertex -52.0704 111.577 -52.3486
    endloop
  endfacet
  facet normal -0.707107 -1.87383e-07 0.707106
    outer loop
      vertex -50.8845 111.032 -51.1627
      vertex -50.7081 109.797 -50.9863
      vertex -48.9142 111.64 -49.1924
    endloop
  endfacet
  facet normal -0.707107 0 0.707107
    outer loop
      vertex -50.8845 109.65 -51.1627
      vertex -50.7081 109.797 -50.9863
      vertex -50.8845 111.032 -51.1627
    endloop
  endfacet
  facet normal -0.707107 0 0.707107
    outer loop
      vertex -50.7081 109.797 -50.9863
      vertex -50.8845 109.65 -51.1627
      vertex -50.8018 109.65 -51.08
    endloop
  endfacet
  facet normal -0.707105 0 0.707109
    outer loop
      vertex -52.0704 108.723 -52.3486
      vertex -51.3891 108.728 -51.6673
      vertex -51.3891 109.036 -51.6673
    endloop
  endfacet
  facet normal -0.707105 -2.53062e-06 0.707109
    outer loop
      vertex -51.3891 108.728 -51.6673
      vertex -52.0704 108.723 -52.3486
      vertex -52.1918 107.467 -52.47
    endloop
  endfacet
  facet normal -0.707107 0 0.707107
    outer loop
      vertex -52.8033 87.15 -53.0815
      vertex -52.1918 89.8332 -52.47
      vertex -53.3005 92.549 -53.5787
    endloop
  endfacet
  facet normal -0.707113 8.61393e-07 0.7071
    outer loop
      vertex -52.1918 89.8332 -52.47
      vertex -52.3025 88.1248 -52.5807
      vertex -52.0704 88.5766 -52.3486
    endloop
  endfacet
  facet normal -0.707107 0 0.707107
    outer loop
      vertex -54.2175 83.65 -54.4957
      vertex -53.3005 92.549 -53.5787
      vertex -53.9857 95.5313 -54.2639
    endloop
  endfacet
  facet normal -0.707107 0 0.707107
    outer loop
      vertex -52.1918 89.8332 -52.47
      vertex -52.8033 87.15 -53.0815
      vertex -52.3025 88.1248 -52.5807
    endloop
  endfacet
  facet normal -0.707107 -1.27427e-06 0.707107
    outer loop
      vertex -54.2175 83.65 -54.4957
      vertex -48.9142 85.6596 -49.1924
      vertex -52.0704 85.7234 -52.3486
    endloop
  endfacet
  facet normal -0.707107 -5.04296e-07 0.707107
    outer loop
      vertex -48.9142 85.6596 -49.1924
      vertex -54.2175 83.65 -54.4957
      vertex -46.8885 84.3842 -47.1667
    endloop
  endfacet
  facet normal -0.707107 0 0.707107
    outer loop
      vertex -44.7196 83.7322 -44.9978
      vertex -54.2175 83.65 -54.4957
      vertex -42.5022 83.7322 -42.7804
    endloop
  endfacet
  facet normal -0.707107 -4.02147e-06 0.707107
    outer loop
      vertex -46.8885 84.3842 -47.1667
      vertex -54.2175 83.65 -54.4957
      vertex -44.7196 83.7322 -44.9978
    endloop
  endfacet
  facet normal -0.707109 3.55961e-06 0.707104
    outer loop
      vertex -52.3025 86.1752 -52.5807
      vertex -54.2175 83.65 -54.4957
      vertex -52.0704 85.7234 -52.3486
    endloop
  endfacet
  facet normal -0.707107 0 0.707107
    outer loop
      vertex -52.8033 87.15 -53.0815
      vertex -54.2175 83.65 -54.4957
      vertex -52.3025 86.1752 -52.5807
    endloop
  endfacet
  facet normal -0.707107 0 0.707107
    outer loop
      vertex -53.3005 92.549 -53.5787
      vertex -54.2175 83.65 -54.4957
      vertex -52.8033 87.15 -53.0815
    endloop
  endfacet
  facet normal -0.707107 0 0.707107
    outer loop
      vertex -54.2175 83.65 -54.4957
      vertex -53.9857 95.5313 -54.2639
      vertex -54.2175 98.65 -54.4957
    endloop
  endfacet
  facet normal -0.707105 2.5306e-06 0.707109
    outer loop
      vertex -52.0704 88.5766 -52.3486
      vertex -51.3891 88.5724 -51.6673
      vertex -52.1918 89.8332 -52.47
    endloop
  endfacet
  facet normal -0.707105 0 0.707109
    outer loop
      vertex -51.3891 88.5724 -51.6673
      vertex -52.0704 88.5766 -52.3486
      vertex -51.3891 88.2635 -51.6673
    endloop
  endfacet
  facet normal -0.707107 0 0.707107
    outer loop
      vertex -50.8845 87.65 -51.1627
      vertex -50.7081 87.5028 -50.9863
      vertex -50.8018 87.65 -51.08
    endloop
  endfacet
  facet normal -0.707107 0 0.707107
    outer loop
      vertex -50.8845 86.2683 -51.1627
      vertex -50.7081 87.5028 -50.9863
      vertex -50.8845 87.65 -51.1627
    endloop
  endfacet
  facet normal -0.707107 1.87383e-07 0.707106
    outer loop
      vertex -50.8845 86.2683 -51.1627
      vertex -48.9142 85.6596 -49.1924
      vertex -50.7081 87.5028 -50.9863
    endloop
  endfacet
  facet normal -0.707107 4.74162e-06 0.707107
    outer loop
      vertex -48.9142 85.6596 -49.1924
      vertex -50.8845 86.2683 -51.1627
      vertex -52.0704 85.7234 -52.3486
    endloop
  endfacet
  facet normal 0 0 0
    outer loop
      vertex -54.2175 98.65 -54.4957
      vertex -54.2175 113.65 -54.4957
      vertex -54.2175 83.65 -54.4957
    endloop
  endfacet
  facet normal 0.707107 -0 0.707107
    outer loop
      vertex -33.0043 83.65 -33.2825
      vertex -32.2972 103.15 -33.9896
      vertex -33.0043 103.15 -33.2825
    endloop
  endfacet
  facet normal 0.707107 0 0.707107
    outer loop
      vertex -32.2972 103.15 -33.9896
      vertex -33.0043 83.65 -33.2825
      vertex -32.2972 83.65 -33.9896
    endloop
  endfacet
  facet normal 0.707107 -0 0.707107
    outer loop
      vertex -33.0043 110.15 -33.2825
      vertex -32.2972 113.65 -33.9896
      vertex -33.0043 113.65 -33.2825
    endloop
  endfacet
  facet normal 0.707107 0 0.707107
    outer loop
      vertex -32.2972 113.65 -33.9896
      vertex -33.0043 110.15 -33.2825
      vertex -32.2972 110.15 -33.9896
    endloop
  endfacet
  facet normal 0 0 0
    outer loop
      vertex -33.0043 110.15 -33.2825
      vertex -33.0043 113.65 -33.2825
      vertex -33.0043 83.65 -33.2825
    endloop
  endfacet
  facet normal 0 0 0
    outer loop
      vertex -33.0043 83.65 -33.2825
      vertex -33.0043 103.15 -33.2825
      vertex -33.0043 110.15 -33.2825
    endloop
  endfacet
  facet normal 0.19495 0.961244 -0.194948
    outer loop
      vertex -32.2972 113.65 -33.9896
      vertex -28.2962 111.212 -42.0094
      vertex -29.9881 111.577 -41.904
    endloop
  endfacet
  facet normal 0.194948 0.961244 -0.194948
    outer loop
      vertex -29.2767 111.212 -42.9899
      vertex -9.5 103.65 -60.5
      vertex -53.5104 113.65 -55.2028
    endloop
  endfacet
  facet normal 0.194948 0.961244 -0.194949
    outer loop
      vertex -28.2962 111.212 -42.0094
      vertex -9.5 103.65 -60.5
      vertex -29.2767 111.212 -42.9899
    endloop
  endfacet
  facet normal 0.194947 0.961244 -0.19495
    outer loop
      vertex -9.5 103.65 -60.5
      vertex -28.2962 111.212 -42.0094
      vertex -32.2972 113.65 -33.9896
    endloop
  endfacet
  facet normal 0.194949 0.961244 -0.194948
    outer loop
      vertex -53.5104 113.65 -55.2028
      vertex -29.8869 111.525 -42.0584
      vertex -29.2767 111.212 -42.9899
    endloop
  endfacet
  facet normal 0.194949 0.961244 -0.194949
    outer loop
      vertex -29.9881 111.577 -41.904
      vertex -53.5104 113.65 -55.2028
      vertex -32.2972 113.65 -33.9896
    endloop
  endfacet
  facet normal 0.194955 0.96124 -0.19496
    outer loop
      vertex -29.8869 111.525 -42.0584
      vertex -53.5104 113.65 -55.2028
      vertex -29.9881 111.577 -41.904
    endloop
  endfacet
  facet normal 0 -1 0
    outer loop
      vertex -54.2175 83.65 -54.4957
      vertex -32.2972 83.65 -33.9896
      vertex -33.0043 83.65 -33.2825
    endloop
  endfacet
  facet normal 0 -1 0
    outer loop
      vertex -32.2972 83.65 -33.9896
      vertex -54.2175 83.65 -54.4957
      vertex -53.5104 83.65 -55.2028
    endloop
  endfacet
  facet normal 0.401703 -0.91577 0
    outer loop
      vertex -9.5 93.65 -59.5
      vertex -32.2972 83.65 -33.9896
      vertex -9.5 93.65 -60.5
    endloop
  endfacet
  facet normal 0 1 0
    outer loop
      vertex -32.2972 113.65 -33.9896
      vertex -54.2175 113.65 -54.4957
      vertex -33.0043 113.65 -33.2825
    endloop
  endfacet
  facet normal -0 1 0
    outer loop
      vertex -54.2175 113.65 -54.4957
      vertex -32.2972 113.65 -33.9896
      vertex -53.5104 113.65 -55.2028
    endloop
  endfacet
  facet normal -0.707107 0 -0.707107
    outer loop
      vertex -53.5104 83.65 -55.2028
      vertex -54.2175 113.65 -54.4957
      vertex -53.5104 113.65 -55.2028
    endloop
  endfacet
  facet normal -0.707107 -0 -0.707107
    outer loop
      vertex -54.2175 113.65 -54.4957
      vertex -53.5104 83.65 -55.2028
      vertex -54.2175 83.65 -54.4957
    endloop
  endfacet
  facet normal 0 0.468101 -0.883675
    outer loop
      vertex -14.5 103.65 -60.5
      vertex -53.5104 113.65 -55.2028
      vertex -9.5 103.65 -60.5
    endloop
  endfacet
  facet normal 0.401703 0.91577 -0
    outer loop
      vertex -9.5 103.65 -60.5
      vertex -32.2972 113.65 -33.9896
      vertex -9.5 103.65 -59.5
    endloop
  endfacet
  facet normal -0 -0.468101 -0.883675
    outer loop
      vertex -9.5 93.65 -60.5
      vertex -53.5104 83.65 -55.2028
      vertex -14.5 93.65 -60.5
    endloop
  endfacet
  facet normal 0.194937 -0.961251 -0.194927
    outer loop
      vertex -53.5104 83.65 -55.2028
      vertex -29.8869 85.7753 -42.0584
      vertex -29.9881 85.7234 -41.904
    endloop
  endfacet
  facet normal 0.194948 -0.961244 -0.194948
    outer loop
      vertex -29.8869 85.7753 -42.0584
      vertex -53.5104 83.65 -55.2028
      vertex -29.2767 86.0879 -42.9899
    endloop
  endfacet
  facet normal 0.194949 -0.961244 -0.194949
    outer loop
      vertex -53.5104 83.65 -55.2028
      vertex -29.9881 85.7234 -41.904
      vertex -32.2972 83.65 -33.9896
    endloop
  endfacet
  facet normal 0.194946 -0.961244 -0.19495
    outer loop
      vertex -28.2962 86.0879 -42.0094
      vertex -32.2972 83.65 -33.9896
      vertex -29.9881 85.7234 -41.904
    endloop
  endfacet
  facet normal 0.194949 -0.961244 -0.194948
    outer loop
      vertex -28.2962 86.0879 -42.0094
      vertex -9.5 93.65 -60.5
      vertex -32.2972 83.65 -33.9896
    endloop
  endfacet
  facet normal 0.194949 -0.961244 -0.194948
    outer loop
      vertex -29.2767 86.0879 -42.9899
      vertex -9.5 93.65 -60.5
      vertex -28.2962 86.0879 -42.0094
    endloop
  endfacet
  facet normal 0.194948 -0.961244 -0.194949
    outer loop
      vertex -9.5 93.65 -60.5
      vertex -29.2767 86.0879 -42.9899
      vertex -53.5104 83.65 -55.2028
    endloop
  endfacet
  facet normal 1 -0 0
    outer loop
      vertex -9.5 93.65 -59.5
      vertex -9.5 103.65 -60.5
      vertex -9.5 103.65 -59.5
    endloop
  endfacet
  facet normal 1 0 0
    outer loop
      vertex -9.5 103.65 -60.5
      vertex -9.5 93.65 -59.5
      vertex -9.5 93.65 -60.5
    endloop
  endfacet
  facet normal 0.745646 -0 0.666342
    outer loop
      vertex -32.2972 83.65 -33.9896
      vertex -28.2929 103.15 -38.4705
      vertex -32.2972 103.15 -33.9896
    endloop
  endfacet
  facet normal 0.745646 -3.54036e-08 0.666342
    outer loop
      vertex -28.2929 103.15 -38.4705
      vertex -32.2972 83.65 -33.9896
      vertex -9.5 93.65 -59.5
    endloop
  endfacet
  facet normal 0.745646 0 0.666342
    outer loop
      vertex -28.2929 110.15 -38.4705
      vertex -32.2972 113.65 -33.9896
      vertex -32.2972 110.15 -33.9896
    endloop
  endfacet
  facet normal 0.745646 3.60302e-07 0.666342
    outer loop
      vertex -28.2929 110.15 -38.4705
      vertex -9.5 103.65 -59.5
      vertex -32.2972 113.65 -33.9896
    endloop
  endfacet
  facet normal 0.745646 -0 0.666342
    outer loop
      vertex -28.2929 103.15 -38.4705
      vertex -9.5 103.65 -59.5
      vertex -28.2929 110.15 -38.4705
    endloop
  endfacet
  facet normal 0.745646 0 0.666342
    outer loop
      vertex -9.5 103.65 -59.5
      vertex -28.2929 103.15 -38.4705
      vertex -9.5 93.65 -59.5
    endloop
  endfacet
  facet normal -0.134555 0 -0.990906
    outer loop
      vertex -48.5415 88.5766 -55.8775
      vertex -45.7971 109.268 -56.2502
      vertex -45.7971 88.0317 -56.2502
    endloop
  endfacet
  facet normal -0.134555 0 -0.990906
    outer loop
      vertex -48.5415 88.5766 -55.8775
      vertex -48.5415 108.723 -55.8775
      vertex -45.7971 109.268 -56.2502
    endloop
  endfacet
  facet normal -0.134544 0 -0.990908
    outer loop
      vertex -48.8085 88.352 -55.8413
      vertex -48.5415 108.723 -55.8775
      vertex -48.5415 88.5766 -55.8775
    endloop
  endfacet
  facet normal -0.134544 0 -0.990908
    outer loop
      vertex -48.8085 88.352 -55.8413
      vertex -48.8085 108.948 -55.8413
      vertex -48.5415 108.723 -55.8775
    endloop
  endfacet
  facet normal -0.134556 0 -0.990906
    outer loop
      vertex -50.2376 87.15 -55.6472
      vertex -48.8085 108.948 -55.8413
      vertex -48.8085 88.352 -55.8413
    endloop
  endfacet
  facet normal -0.134556 0 -0.990906
    outer loop
      vertex -48.8085 108.948 -55.8413
      vertex -50.2376 87.15 -55.6472
      vertex -50.2376 110.15 -55.6472
    endloop
  endfacet
  facet normal -0.134555 -0 -0.990906
    outer loop
      vertex -45.7971 88.0317 -56.2502
      vertex -14.5 93.65 -60.5
      vertex -45.7971 86.2683 -56.2502
    endloop
  endfacet
  facet normal -0.134554 0 -0.990906
    outer loop
      vertex -50.2376 87.15 -55.6472
      vertex -53.5104 83.65 -55.2028
      vertex -50.2376 110.15 -55.6472
    endloop
  endfacet
  facet normal -0.134555 8.21429e-07 -0.990906
    outer loop
      vertex -48.8085 85.948 -55.8413
      vertex -53.5104 83.65 -55.2028
      vertex -50.2376 87.15 -55.6472
    endloop
  endfacet
  facet normal -0.134551 -7.95408e-06 -0.990907
    outer loop
      vertex -48.5415 85.7234 -55.8775
      vertex -53.5104 83.65 -55.2028
      vertex -48.8085 85.948 -55.8413
    endloop
  endfacet
  facet normal -0.134557 7.04598e-06 -0.990906
    outer loop
      vertex -45.7971 86.2683 -56.2502
      vertex -53.5104 83.65 -55.2028
      vertex -48.5415 85.7234 -55.8775
    endloop
  endfacet
  facet normal -0.134555 2.01417e-06 -0.990906
    outer loop
      vertex -53.5104 83.65 -55.2028
      vertex -45.7971 86.2683 -56.2502
      vertex -14.5 93.65 -60.5
    endloop
  endfacet
  facet normal -0.134555 0 -0.990906
    outer loop
      vertex -14.5 93.65 -60.5
      vertex -45.7971 88.0317 -56.2502
      vertex -14.5 103.65 -60.5
    endloop
  endfacet
  facet normal -0.134555 -0 -0.990906
    outer loop
      vertex -45.7971 109.268 -56.2502
      vertex -14.5 103.65 -60.5
      vertex -45.7971 88.0317 -56.2502
    endloop
  endfacet
  facet normal -0.134555 -0 -0.990906
    outer loop
      vertex -45.7971 111.032 -56.2502
      vertex -14.5 103.65 -60.5
      vertex -45.7971 109.268 -56.2502
    endloop
  endfacet
  facet normal -0.134555 -8.21431e-07 -0.990906
    outer loop
      vertex -53.5104 113.65 -55.2028
      vertex -48.8085 111.352 -55.8413
      vertex -50.2376 110.15 -55.6472
    endloop
  endfacet
  facet normal -0.134555 -2.01417e-06 -0.990906
    outer loop
      vertex -45.7971 111.032 -56.2502
      vertex -53.5104 113.65 -55.2028
      vertex -14.5 103.65 -60.5
    endloop
  endfacet
  facet normal -0.134557 -7.04598e-06 -0.990906
    outer loop
      vertex -48.5415 111.577 -55.8775
      vertex -53.5104 113.65 -55.2028
      vertex -45.7971 111.032 -56.2502
    endloop
  endfacet
  facet normal -0.134551 7.9539e-06 -0.990907
    outer loop
      vertex -48.8085 111.352 -55.8413
      vertex -53.5104 113.65 -55.2028
      vertex -48.5415 111.577 -55.8775
    endloop
  endfacet
  facet normal -0.134554 -0 -0.990906
    outer loop
      vertex -53.5104 113.65 -55.2028
      vertex -50.2376 110.15 -55.6472
      vertex -53.5104 83.65 -55.2028
    endloop
  endfacet
  facet normal 0 0 -1
    outer loop
      vertex -9.5 93.65 -60.5
      vertex -10.5 96.15 -60.5
      vertex -9.5 103.65 -60.5
    endloop
  endfacet
  facet normal 0 0 -1
    outer loop
      vertex -9.5 93.65 -60.5
      vertex -10.5519 96.1318 -60.5
      vertex -10.5 96.15 -60.5
    endloop
  endfacet
  facet normal 0 0 -1
    outer loop
      vertex -9.5 93.65 -60.5
      vertex -10.7546 96.0957 -60.5
      vertex -10.5519 96.1318 -60.5
    endloop
  endfacet
  facet normal 0 0 -1
    outer loop
      vertex -14.5 93.65 -60.5
      vertex -10.7546 96.0957 -60.5
      vertex -9.5 93.65 -60.5
    endloop
  endfacet
  facet normal -0 0 -1
    outer loop
      vertex -13.7354 96.0957 -60.5
      vertex -14.5 93.65 -60.5
      vertex -13.7354 101.204 -60.5
    endloop
  endfacet
  facet normal -0 0 -1
    outer loop
      vertex -10.7546 96.0957 -60.5
      vertex -14.5 93.65 -60.5
      vertex -13.7354 96.0957 -60.5
    endloop
  endfacet
  facet normal 0 0 -1
    outer loop
      vertex -10.5 101.15 -60.5
      vertex -9.5 103.65 -60.5
      vertex -10.5 96.15 -60.5
    endloop
  endfacet
  facet normal 0 0 -1
    outer loop
      vertex -10.5519 101.168 -60.5
      vertex -9.5 103.65 -60.5
      vertex -10.5 101.15 -60.5
    endloop
  endfacet
  facet normal 0 0 -1
    outer loop
      vertex -10.7546 101.204 -60.5
      vertex -9.5 103.65 -60.5
      vertex -10.5519 101.168 -60.5
    endloop
  endfacet
  facet normal 0 0 -1
    outer loop
      vertex -14.5 103.65 -60.5
      vertex -10.7546 101.204 -60.5
      vertex -13.7354 101.204 -60.5
    endloop
  endfacet
  facet normal 0 0 -1
    outer loop
      vertex -10.7546 101.204 -60.5
      vertex -14.5 103.65 -60.5
      vertex -9.5 103.65 -60.5
    endloop
  endfacet
  facet normal 0 0 -1
    outer loop
      vertex -14.5 103.65 -60.5
      vertex -13.7354 101.204 -60.5
      vertex -14.5 93.65 -60.5
    endloop
  endfacet
  facet normal -0.707107 0 0.707107
    outer loop
      vertex -33.0043 103.15 -33.2825
      vertex -28.4081 110.15 -28.6863
      vertex -33.0043 110.15 -33.2825
    endloop
  endfacet
  facet normal -0.707107 0 0.707107
    outer loop
      vertex -28.4081 110.15 -28.6863
      vertex -33.0043 103.15 -33.2825
      vertex -28.4081 103.15 -28.6863
    endloop
  endfacet
  facet normal 0.707107 -0 0.707107
    outer loop
      vertex -28.4081 103.15 -28.6863
      vertex -23.4584 110.15 -33.636
      vertex -28.4081 110.15 -28.6863
    endloop
  endfacet
  facet normal 0.707107 0 0.707107
    outer loop
      vertex -23.4584 110.15 -33.636
      vertex -28.4081 103.15 -28.6863
      vertex -23.4584 103.15 -33.636
    endloop
  endfacet
  facet normal 0 -1 0
    outer loop
      vertex -33.0043 103.15 -33.2825
      vertex -29.375 103.15 -32.4845
      vertex -28.4081 103.15 -28.6863
    endloop
  endfacet
  facet normal 0 -1 0
    outer loop
      vertex -29.375 103.15 -32.4845
      vertex -33.0043 103.15 -33.2825
      vertex -29.7731 103.15 -33.174
    endloop
  endfacet
  facet normal 0 -1 0
    outer loop
      vertex -32.2972 103.15 -33.9896
      vertex -29.7731 103.15 -33.174
      vertex -33.0043 103.15 -33.2825
    endloop
  endfacet
  facet normal 0 -1 0
    outer loop
      vertex -32.2972 103.15 -33.9896
      vertex -30.25 103.15 -34
      vertex -29.7731 103.15 -33.174
    endloop
  endfacet
  facet normal 0 -1 0
    outer loop
      vertex -32.2972 103.15 -33.9896
      vertex -29.8519 103.15 -34.6896
      vertex -30.25 103.15 -34
    endloop
  endfacet
  facet normal 0 -1 0
    outer loop
      vertex -32.2972 103.15 -33.9896
      vertex -29.375 103.15 -35.5155
      vertex -29.8519 103.15 -34.6896
    endloop
  endfacet
  facet normal 0 -1 0
    outer loop
      vertex -29.375 103.15 -35.5155
      vertex -28.2929 103.15 -38.4705
      vertex -27.625 103.15 -35.5155
    endloop
  endfacet
  facet normal 0 -1 0
    outer loop
      vertex -28.2929 103.15 -38.4705
      vertex -29.375 103.15 -35.5155
      vertex -32.2972 103.15 -33.9896
    endloop
  endfacet
  facet normal 0 -1 0
    outer loop
      vertex -27.625 103.15 -32.4845
      vertex -28.4081 103.15 -28.6863
      vertex -29.375 103.15 -32.4845
    endloop
  endfacet
  facet normal 0 -1 0
    outer loop
      vertex -23.4584 103.15 -33.636
      vertex -27.625 103.15 -32.4845
      vertex -27.2269 103.15 -33.174
    endloop
  endfacet
  facet normal 0 -1 0
    outer loop
      vertex -27.625 103.15 -32.4845
      vertex -23.4584 103.15 -33.636
      vertex -28.4081 103.15 -28.6863
    endloop
  endfacet
  facet normal 0 -1 0
    outer loop
      vertex -26.75 103.15 -34
      vertex -23.4584 103.15 -33.636
      vertex -27.2269 103.15 -33.174
    endloop
  endfacet
  facet normal 0 -1 0
    outer loop
      vertex -27.1481 103.15 -34.6896
      vertex -23.4584 103.15 -33.636
      vertex -26.75 103.15 -34
    endloop
  endfacet
  facet normal 0 -1 0
    outer loop
      vertex -27.625 103.15 -35.5155
      vertex -23.4584 103.15 -33.636
      vertex -27.1481 103.15 -34.6896
    endloop
  endfacet
  facet normal 0 -1 0
    outer loop
      vertex -23.4584 103.15 -33.636
      vertex -27.625 103.15 -35.5155
      vertex -28.2929 103.15 -38.4705
    endloop
  endfacet
  facet normal 0 1 0
    outer loop
      vertex -23.4584 110.15 -33.636
      vertex -27.625 110.15 -32.4845
      vertex -28.4081 110.15 -28.6863
    endloop
  endfacet
  facet normal 0 1 0
    outer loop
      vertex -27.625 110.15 -32.4845
      vertex -23.4584 110.15 -33.636
      vertex -27.2881 110.15 -33.0679
    endloop
  endfacet
  facet normal 0 1 0
    outer loop
      vertex -23.4584 110.15 -33.636
      vertex -26.75 110.15 -34
      vertex -27.2881 110.15 -33.0679
    endloop
  endfacet
  facet normal 0 1 0
    outer loop
      vertex -23.4584 110.15 -33.636
      vertex -27.0869 110.15 -34.5835
      vertex -26.75 110.15 -34
    endloop
  endfacet
  facet normal 0 1 0
    outer loop
      vertex -23.4584 110.15 -33.636
      vertex -27.625 110.15 -35.5155
      vertex -27.0869 110.15 -34.5835
    endloop
  endfacet
  facet normal 0 1 0
    outer loop
      vertex -27.625 110.15 -35.5155
      vertex -28.2929 110.15 -38.4705
      vertex -29.375 110.15 -35.5155
    endloop
  endfacet
  facet normal 0 1 0
    outer loop
      vertex -28.2929 110.15 -38.4705
      vertex -27.625 110.15 -35.5155
      vertex -23.4584 110.15 -33.636
    endloop
  endfacet
  facet normal 0 1 0
    outer loop
      vertex -29.375 110.15 -32.4845
      vertex -28.4081 110.15 -28.6863
      vertex -27.625 110.15 -32.4845
    endloop
  endfacet
  facet normal 0 1 0
    outer loop
      vertex -33.0043 110.15 -33.2825
      vertex -29.375 110.15 -32.4845
      vertex -29.7119 110.15 -33.0679
    endloop
  endfacet
  facet normal 0 1 -0
    outer loop
      vertex -29.375 110.15 -32.4845
      vertex -33.0043 110.15 -33.2825
      vertex -28.4081 110.15 -28.6863
    endloop
  endfacet
  facet normal 0 1 0
    outer loop
      vertex -29.7119 110.15 -33.0679
      vertex -32.2972 110.15 -33.9896
      vertex -33.0043 110.15 -33.2825
    endloop
  endfacet
  facet normal 0 1 -0
    outer loop
      vertex -30.25 110.15 -34
      vertex -32.2972 110.15 -33.9896
      vertex -29.7119 110.15 -33.0679
    endloop
  endfacet
  facet normal 0 1 0
    outer loop
      vertex -29.9131 110.15 -34.5835
      vertex -32.2972 110.15 -33.9896
      vertex -30.25 110.15 -34
    endloop
  endfacet
  facet normal 0 1 0
    outer loop
      vertex -29.375 110.15 -35.5155
      vertex -32.2972 110.15 -33.9896
      vertex -29.9131 110.15 -34.5835
    endloop
  endfacet
  facet normal 0 1 0
    outer loop
      vertex -32.2972 110.15 -33.9896
      vertex -29.375 110.15 -35.5155
      vertex -28.2929 110.15 -38.4705
    endloop
  endfacet
  facet normal 0.707107 0 -0.707107
    outer loop
      vertex -28.2929 103.15 -38.4705
      vertex -23.4584 110.15 -33.636
      vertex -23.4584 103.15 -33.636
    endloop
  endfacet
  facet normal 0.707107 0 -0.707107
    outer loop
      vertex -23.4584 110.15 -33.636
      vertex -28.2929 103.15 -38.4705
      vertex -28.2929 110.15 -38.4705
    endloop
  endfacet
  facet normal -0.697578 0.16362 -0.697576
    outer loop
      vertex -10.5 96.15 -59.45
      vertex -32.2294 88.5405 -39.5054
      vertex -33.4954 88.5405 -38.2394
    endloop
  endfacet
  facet normal -0.678005 0 -0.735057
    outer loop
      vertex -33.4954 88.5405 -38.2394
      vertex -10.5 101.15 -59.45
      vertex -10.5 96.15 -59.45
    endloop
  endfacet
  facet normal -0.678005 -1.27918e-07 -0.735057
    outer loop
      vertex -33.4954 88.5405 -38.2394
      vertex -33.4954 108.76 -38.2394
      vertex -10.5 101.15 -59.45
    endloop
  endfacet
  facet normal -0.678005 -1.27918e-07 -0.735057
    outer loop
      vertex -35.5217 88.5766 -36.3703
      vertex -33.4954 108.76 -38.2394
      vertex -33.4954 88.5405 -38.2394
    endloop
  endfacet
  facet normal -0.678006 0 -0.735056
    outer loop
      vertex -35.5217 88.5766 -36.3703
      vertex -35.5217 108.723 -36.3703
      vertex -33.4954 108.76 -38.2394
    endloop
  endfacet
  facet normal -0.678003 0 -0.735059
    outer loop
      vertex -35.8185 88.5542 -36.0966
      vertex -35.5217 108.723 -36.3703
      vertex -35.5217 88.5766 -36.3703
    endloop
  endfacet
  facet normal -0.678003 0 -0.735059
    outer loop
      vertex -35.5217 108.723 -36.3703
      vertex -35.8185 88.5542 -36.0966
      vertex -35.8185 108.746 -36.0966
    endloop
  endfacet
  facet normal 0 1 0
    outer loop
      vertex -35.2223 87.65 -37.6218
      vertex -41.145 87.65 -41.4232
      vertex -36.283 87.65 -36.5611
    endloop
  endfacet
  facet normal 0 1 0
    outer loop
      vertex -35.2223 87.65 -37.6218
      vertex -42.5022 87.65 -42.7804
      vertex -41.145 87.65 -41.4232
    endloop
  endfacet
  facet normal 0 1 0
    outer loop
      vertex -49.8239 87.65 -52.2234
      vertex -42.5022 87.65 -42.7804
      vertex -35.2223 87.65 -37.6218
    endloop
  endfacet
  facet normal 0 1 0
    outer loop
      vertex -42.5022 87.65 -42.7804
      vertex -49.8239 87.65 -52.2234
      vertex -50.8018 87.65 -51.08
    endloop
  endfacet
  facet normal 0 1 0
    outer loop
      vertex -50.8018 87.65 -51.08
      vertex -49.8239 87.65 -52.2234
      vertex -50.8845 87.65 -51.1627
    endloop
  endfacet
  facet normal 0.707106 -0 0.707108
    outer loop
      vertex -51.3891 108.728 -51.6673
      vertex -50.3284 109.036 -52.7279
      vertex -51.3891 109.036 -51.6673
    endloop
  endfacet
  facet normal 0.707106 0 0.707108
    outer loop
      vertex -50.3284 109.036 -52.7279
      vertex -51.3891 108.728 -51.6673
      vertex -50.3284 88.2635 -52.7279
    endloop
  endfacet
  facet normal 0.707106 -0 0.707108
    outer loop
      vertex -51.3891 88.5724 -51.6673
      vertex -50.3284 88.2635 -52.7279
      vertex -51.3891 108.728 -51.6673
    endloop
  endfacet
  facet normal 0.707106 0 0.707108
    outer loop
      vertex -50.3284 88.2635 -52.7279
      vertex -51.3891 88.5724 -51.6673
      vertex -51.3891 88.2635 -51.6673
    endloop
  endfacet
  facet normal 0 -1 0
    outer loop
      vertex -41.145 109.65 -41.4232
      vertex -35.2223 109.65 -37.6218
      vertex -36.283 109.65 -36.5611
    endloop
  endfacet
  facet normal 0 -1 0
    outer loop
      vertex -42.5022 109.65 -42.7804
      vertex -35.2223 109.65 -37.6218
      vertex -41.145 109.65 -41.4232
    endloop
  endfacet
  facet normal 0 -1 0
    outer loop
      vertex -49.8239 109.65 -52.2234
      vertex -42.5022 109.65 -42.7804
      vertex -50.8018 109.65 -51.08
    endloop
  endfacet
  facet normal 0 -1 0
    outer loop
      vertex -49.8239 109.65 -52.2234
      vertex -50.8018 109.65 -51.08
      vertex -50.8845 109.65 -51.1627
    endloop
  endfacet
  facet normal 0 -1 -0
    outer loop
      vertex -42.5022 109.65 -42.7804
      vertex -49.8239 109.65 -52.2234
      vertex -35.2223 109.65 -37.6218
    endloop
  endfacet
  facet normal 0 -0.677154 0.735841
    outer loop
      vertex -49.0727 109.382 -52.9745
      vertex -13.7354 101.204 -60.5
      vertex -10.7546 101.204 -60.5
    endloop
  endfacet
  facet normal -1.50497e-05 -0.677189 0.735809
    outer loop
      vertex -13.7354 101.204 -60.5
      vertex -49.0727 109.382 -52.9745
      vertex -49.0472 109.354 -53
    endloop
  endfacet
  facet normal -0.172964 0.969622 0.172963
    outer loop
      vertex -35.2223 87.65 -37.6218
      vertex -49.0727 87.918 -52.9745
      vertex -49.8239 87.65 -52.2234
    endloop
  endfacet
  facet normal -0.172912 0.969622 0.173016
    outer loop
      vertex -10.5519 96.1318 -60.5
      vertex -32.1491 88.5766 -39.743
      vertex -32.1555 88.5663 -39.6918
    endloop
  endfacet
  facet normal -0.172973 0.969622 0.172954
    outer loop
      vertex -10.7546 96.0957 -60.5
      vertex -32.1491 88.5766 -39.743
      vertex -10.5519 96.1318 -60.5
    endloop
  endfacet
  facet normal -0.172963 0.969622 0.172963
    outer loop
      vertex -32.1491 88.5766 -39.743
      vertex -10.7546 96.0957 -60.5
      vertex -49.0727 87.918 -52.9745
    endloop
  endfacet
  facet normal -0.172963 0.969622 0.172963
    outer loop
      vertex -49.0727 87.918 -52.9745
      vertex -35.2223 87.65 -37.6218
      vertex -32.9901 88.323 -39.1625
    endloop
  endfacet
  facet normal -0.172962 0.969623 0.172962
    outer loop
      vertex -49.0727 87.918 -52.9745
      vertex -32.9901 88.323 -39.1625
      vertex -32.1491 88.5766 -39.743
    endloop
  endfacet
  facet normal -1.4864e-05 0.677189 0.735809
    outer loop
      vertex -49.0727 87.918 -52.9745
      vertex -13.7354 96.0957 -60.5
      vertex -49.0472 87.9457 -53
    endloop
  endfacet
  facet normal -0 0.677154 0.735841
    outer loop
      vertex -13.7354 96.0957 -60.5
      vertex -49.0727 87.918 -52.9745
      vertex -10.7546 96.0957 -60.5
    endloop
  endfacet
  facet normal 0.20776 0 0.97818
    outer loop
      vertex -50.3284 109.036 -52.7279
      vertex -49.0472 88.0317 -53
      vertex -49.0472 109.268 -53
    endloop
  endfacet
  facet normal 0.20776 0 0.97818
    outer loop
      vertex -49.0472 88.0317 -53
      vertex -50.3284 109.036 -52.7279
      vertex -50.3284 88.2635 -52.7279
    endloop
  endfacet
  facet normal 0.207758 -0 0.97818
    outer loop
      vertex -49.0472 109.268 -53
      vertex -13.7354 101.204 -60.5
      vertex -49.0472 109.354 -53
    endloop
  endfacet
  facet normal 0.207758 0 0.97818
    outer loop
      vertex -13.7354 101.204 -60.5
      vertex -49.0472 109.268 -53
      vertex -13.7354 96.0957 -60.5
    endloop
  endfacet
  facet normal 0.207758 -0 0.97818
    outer loop
      vertex -49.0472 88.0317 -53
      vertex -13.7354 96.0957 -60.5
      vertex -49.0472 109.268 -53
    endloop
  endfacet
  facet normal 0.207758 0 0.97818
    outer loop
      vertex -13.7354 96.0957 -60.5
      vertex -49.0472 88.0317 -53
      vertex -49.0472 87.9457 -53
    endloop
  endfacet
  facet normal -0.172963 -0.969622 0.172963
    outer loop
      vertex -49.0727 109.382 -52.9745
      vertex -32.9901 108.977 -39.1625
      vertex -35.2223 109.65 -37.6218
    endloop
  endfacet
  facet normal -0.172964 -0.969622 0.172963
    outer loop
      vertex -49.0727 109.382 -52.9745
      vertex -35.2223 109.65 -37.6218
      vertex -49.8239 109.65 -52.2234
    endloop
  endfacet
  facet normal -0.172967 -0.969621 0.172967
    outer loop
      vertex -32.9901 108.977 -39.1625
      vertex -49.0727 109.382 -52.9745
      vertex -32.1491 108.723 -39.743
    endloop
  endfacet
  facet normal -0.172963 -0.969622 0.172963
    outer loop
      vertex -10.7546 101.204 -60.5
      vertex -32.1491 108.723 -39.743
      vertex -49.0727 109.382 -52.9745
    endloop
  endfacet
  facet normal -0.172973 -0.969622 0.172954
    outer loop
      vertex -10.5519 101.168 -60.5
      vertex -32.1491 108.723 -39.743
      vertex -10.7546 101.204 -60.5
    endloop
  endfacet
  facet normal -0.172926 -0.969622 0.173002
    outer loop
      vertex -32.1491 108.723 -39.743
      vertex -10.5519 101.168 -60.5
      vertex -32.1555 108.734 -39.6918
    endloop
  endfacet
  facet normal -0.330482 -0.943812 4.07763e-05
    outer loop
      vertex -32.1555 108.734 -39.6918
      vertex -10.5 101.15 -59.45
      vertex -32.2294 108.76 -39.5054
    endloop
  endfacet
  facet normal -0.330512 -0.943802 4.8359e-06
    outer loop
      vertex -10.5519 101.168 -60.5
      vertex -10.5 101.15 -59.45
      vertex -32.1555 108.734 -39.6918
    endloop
  endfacet
  facet normal -0.330425 -0.943832 -0
    outer loop
      vertex -10.5 101.15 -59.45
      vertex -10.5519 101.168 -60.5
      vertex -10.5 101.15 -60.5
    endloop
  endfacet
  facet normal -1 0 0
    outer loop
      vertex -10.5 96.15 -60.5
      vertex -10.5 101.15 -59.45
      vertex -10.5 101.15 -60.5
    endloop
  endfacet
  facet normal -1 -0 0
    outer loop
      vertex -10.5 101.15 -59.45
      vertex -10.5 96.15 -60.5
      vertex -10.5 96.15 -59.45
    endloop
  endfacet
  facet normal -0.330541 0.943792 -3.05816e-05
    outer loop
      vertex -10.5 96.15 -59.45
      vertex -32.1555 88.5663 -39.6918
      vertex -32.2294 88.5405 -39.5054
    endloop
  endfacet
  facet normal -0.330548 0.943789 0
    outer loop
      vertex -10.5519 96.1318 -60.5
      vertex -10.5 96.15 -59.45
      vertex -10.5 96.15 -60.5
    endloop
  endfacet
  facet normal -0.330517 0.9438 -1.70739e-06
    outer loop
      vertex -10.5 96.15 -59.45
      vertex -10.5519 96.1318 -60.5
      vertex -32.1555 88.5663 -39.6918
    endloop
  endfacet
  facet normal -0.697578 -0.163615 -0.697578
    outer loop
      vertex -32.2294 108.76 -39.5054
      vertex -10.5 101.15 -59.45
      vertex -33.4954 108.76 -38.2394
    endloop
  endfacet
  facet normal -0.866026 4.57103e-07 -0.499999
    outer loop
      vertex -27.625 120.15 -32.4845
      vertex -27.4019 123.15 -32.8709
      vertex -27.3756 120.15 -32.9164
    endloop
  endfacet
  facet normal -0.866025 0 -0.500001
    outer loop
      vertex -27.4019 123.15 -32.8709
      vertex -27.625 120.15 -32.4845
      vertex -27.625 123.15 -32.4845
    endloop
  endfacet
  facet normal -0.866025 6.13747e-08 -0.5
    outer loop
      vertex -27.625 103.15 -32.4845
      vertex -27.2881 110.15 -33.0679
      vertex -27.2269 103.15 -33.174
    endloop
  endfacet
  facet normal -0.866025 0 -0.500001
    outer loop
      vertex -27.2881 110.15 -33.0679
      vertex -27.625 103.15 -32.4845
      vertex -27.625 110.15 -32.4845
    endloop
  endfacet
  facet normal 0 0 -1
    outer loop
      vertex -29.375 120.15 -32.4845
      vertex -27.625 123.15 -32.4845
      vertex -27.625 120.15 -32.4845
    endloop
  endfacet
  facet normal -0 0 -1
    outer loop
      vertex -27.625 123.15 -32.4845
      vertex -29.375 120.15 -32.4845
      vertex -29.375 123.15 -32.4845
    endloop
  endfacet
  facet normal 0 0 -1
    outer loop
      vertex -29.375 103.15 -32.4845
      vertex -27.625 110.15 -32.4845
      vertex -27.625 103.15 -32.4845
    endloop
  endfacet
  facet normal -0 0 -1
    outer loop
      vertex -27.625 110.15 -32.4845
      vertex -29.375 103.15 -32.4845
      vertex -29.375 110.15 -32.4845
    endloop
  endfacet
  facet normal -0.866025 0 -0.5
    outer loop
      vertex -27.3756 120.15 -32.9164
      vertex -26.75 123.15 -34
      vertex -26.75 120.15 -34
    endloop
  endfacet
  facet normal -0.866026 4.6943e-07 -0.499999
    outer loop
      vertex -26.75 123.15 -34
      vertex -27.3756 120.15 -32.9164
      vertex -27.4019 123.15 -32.8709
    endloop
  endfacet
  facet normal -0.866026 0 -0.499999
    outer loop
      vertex -27.2269 103.15 -33.174
      vertex -26.75 110.15 -34
      vertex -26.75 103.15 -34
    endloop
  endfacet
  facet normal -0.866026 3.62284e-08 -0.499999
    outer loop
      vertex -26.75 110.15 -34
      vertex -27.2269 103.15 -33.174
      vertex -27.2881 110.15 -33.0679
    endloop
  endfacet
  facet normal 0.866026 4.6943e-07 -0.499999
    outer loop
      vertex -29.6244 120.15 -32.9164
      vertex -30.25 123.15 -34
      vertex -29.5981 123.15 -32.8709
    endloop
  endfacet
  facet normal 0.866025 0 -0.5
    outer loop
      vertex -30.25 123.15 -34
      vertex -29.6244 120.15 -32.9164
      vertex -30.25 120.15 -34
    endloop
  endfacet
  facet normal 0.866026 3.62284e-08 -0.499999
    outer loop
      vertex -29.7731 103.15 -33.174
      vertex -30.25 110.15 -34
      vertex -29.7119 110.15 -33.0679
    endloop
  endfacet
  facet normal 0.866026 0 -0.499999
    outer loop
      vertex -30.25 110.15 -34
      vertex -29.7731 103.15 -33.174
      vertex -30.25 103.15 -34
    endloop
  endfacet
  facet normal 0.866025 -0 0.500001
    outer loop
      vertex -30.25 120.15 -34
      vertex -30.0269 123.15 -34.3865
      vertex -30.25 123.15 -34
    endloop
  endfacet
  facet normal 0.866026 -4.57103e-07 0.499999
    outer loop
      vertex -30.0269 123.15 -34.3865
      vertex -30.25 120.15 -34
      vertex -30.0006 120.15 -34.4319
    endloop
  endfacet
  facet normal 0.866025 -0 0.500001
    outer loop
      vertex -30.25 103.15 -34
      vertex -29.9131 110.15 -34.5835
      vertex -30.25 110.15 -34
    endloop
  endfacet
  facet normal 0.866025 -6.13747e-08 0.5
    outer loop
      vertex -29.9131 110.15 -34.5835
      vertex -30.25 103.15 -34
      vertex -29.8519 103.15 -34.6896
    endloop
  endfacet
  facet normal -0 0 1
    outer loop
      vertex -29.375 123.15 -35.5155
      vertex -27.625 120.15 -35.5155
      vertex -27.625 123.15 -35.5155
    endloop
  endfacet
  facet normal 0 0 1
    outer loop
      vertex -27.625 120.15 -35.5155
      vertex -29.375 123.15 -35.5155
      vertex -29.375 120.15 -35.5155
    endloop
  endfacet
  facet normal -0 0 1
    outer loop
      vertex -29.375 110.15 -35.5155
      vertex -27.625 103.15 -35.5155
      vertex -27.625 110.15 -35.5155
    endloop
  endfacet
  facet normal 0 0 1
    outer loop
      vertex -27.625 103.15 -35.5155
      vertex -29.375 110.15 -35.5155
      vertex -29.375 103.15 -35.5155
    endloop
  endfacet
  facet normal -0.866025 0 0.5
    outer loop
      vertex -26.9994 120.15 -34.4319
      vertex -27.625 123.15 -35.5155
      vertex -27.625 120.15 -35.5155
    endloop
  endfacet
  facet normal -0.866026 -4.6943e-07 0.499999
    outer loop
      vertex -27.625 123.15 -35.5155
      vertex -26.9994 120.15 -34.4319
      vertex -26.9731 123.15 -34.3865
    endloop
  endfacet
  facet normal -0.866026 0 0.499999
    outer loop
      vertex -27.1481 103.15 -34.6896
      vertex -27.625 110.15 -35.5155
      vertex -27.625 103.15 -35.5155
    endloop
  endfacet
  facet normal -0.866026 -3.62284e-08 0.499999
    outer loop
      vertex -27.625 110.15 -35.5155
      vertex -27.1481 103.15 -34.6896
      vertex -27.0869 110.15 -34.5835
    endloop
  endfacet
  facet normal -0.866026 -4.57103e-07 0.499999
    outer loop
      vertex -26.75 120.15 -34
      vertex -26.9731 123.15 -34.3865
      vertex -26.9994 120.15 -34.4319
    endloop
  endfacet
  facet normal -0.866025 0 0.500001
    outer loop
      vertex -26.9731 123.15 -34.3865
      vertex -26.75 120.15 -34
      vertex -26.75 123.15 -34
    endloop
  endfacet
  facet normal -0.866025 -6.13747e-08 0.5
    outer loop
      vertex -26.75 103.15 -34
      vertex -27.0869 110.15 -34.5835
      vertex -27.1481 103.15 -34.6896
    endloop
  endfacet
  facet normal -0.866025 0 0.500001
    outer loop
      vertex -27.0869 110.15 -34.5835
      vertex -26.75 103.15 -34
      vertex -26.75 110.15 -34
    endloop
  endfacet
  facet normal 0.866026 -4.6943e-07 0.499999
    outer loop
      vertex -30.0006 120.15 -34.4319
      vertex -29.375 123.15 -35.5155
      vertex -30.0269 123.15 -34.3865
    endloop
  endfacet
  facet normal 0.866025 0 0.5
    outer loop
      vertex -29.375 123.15 -35.5155
      vertex -30.0006 120.15 -34.4319
      vertex -29.375 120.15 -35.5155
    endloop
  endfacet
  facet normal 0.866026 -3.62284e-08 0.499999
    outer loop
      vertex -29.8519 103.15 -34.6896
      vertex -29.375 110.15 -35.5155
      vertex -29.9131 110.15 -34.5835
    endloop
  endfacet
  facet normal 0.866026 0 0.499999
    outer loop
      vertex -29.375 110.15 -35.5155
      vertex -29.8519 103.15 -34.6896
      vertex -29.375 103.15 -35.5155
    endloop
  endfacet
  facet normal 0.866025 0 -0.500001
    outer loop
      vertex -29.375 120.15 -32.4845
      vertex -29.5981 123.15 -32.8709
      vertex -29.375 123.15 -32.4845
    endloop
  endfacet
  facet normal 0.866026 4.57103e-07 -0.499999
    outer loop
      vertex -29.5981 123.15 -32.8709
      vertex -29.375 120.15 -32.4845
      vertex -29.6244 120.15 -32.9164
    endloop
  endfacet
  facet normal 0.866025 0 -0.500001
    outer loop
      vertex -29.375 103.15 -32.4845
      vertex -29.7119 110.15 -33.0679
      vertex -29.375 110.15 -32.4845
    endloop
  endfacet
  facet normal 0.866025 6.13747e-08 -0.5
    outer loop
      vertex -29.7119 110.15 -33.0679
      vertex -29.375 103.15 -32.4845
      vertex -29.7731 103.15 -33.174
    endloop
  endfacet
  facet normal -0.92388 -1.03401e-07 -0.382683
    outer loop
      vertex -11.409 120.15 3.59099
      vertex -11.241 123.15 3.18529
      vertex -11.2212 120.15 3.13756
    endloop
  endfacet
  facet normal -0.92388 0 -0.382683
    outer loop
      vertex -11.241 123.15 3.18529
      vertex -11.409 120.15 3.59099
      vertex -11.409 123.15 3.59099
    endloop
  endfacet
  facet normal -0.92388 0 -0.382683
    outer loop
      vertex -11.2212 120.15 3.13756
      vertex -10.75 123.15 2
      vertex -10.75 120.15 2
    endloop
  endfacet
  facet normal -0.92388 -1.0508e-07 -0.382683
    outer loop
      vertex -10.75 123.15 2
      vertex -11.2212 120.15 3.13756
      vertex -11.241 123.15 3.18529
    endloop
  endfacet
  facet normal -0.382683 0 -0.92388
    outer loop
      vertex -11.409 120.15 3.59099
      vertex -11.8147 123.15 3.75904
      vertex -11.409 123.15 3.59099
    endloop
  endfacet
  facet normal -0.382684 -5.26616e-08 -0.923879
    outer loop
      vertex -11.8147 123.15 3.75904
      vertex -11.409 120.15 3.59099
      vertex -11.8624 120.15 3.77881
    endloop
  endfacet
  facet normal 0.923879 -0 0.382684
    outer loop
      vertex -15.25 120.15 2
      vertex -15.082 123.15 1.5943
      vertex -15.25 123.15 2
    endloop
  endfacet
  facet normal 0.92388 -1.85491e-07 0.382683
    outer loop
      vertex -15.082 123.15 1.5943
      vertex -15.25 120.15 2
      vertex -15.0622 120.15 1.54657
    endloop
  endfacet
  facet normal -0.382683 9.17792e-09 0.92388
    outer loop
      vertex -13 120.15 -0.25
      vertex -12.5943 123.15 -0.0819527
      vertex -13 123.15 -0.25
    endloop
  endfacet
  facet normal -0.382683 3.51511e-08 0.92388
    outer loop
      vertex -12.5943 123.15 -0.0819527
      vertex -13 120.15 -0.25
      vertex -12.5466 120.15 -0.0621824
    endloop
  endfacet
  facet normal 0.382683 0 -0.92388
    outer loop
      vertex -14.1376 120.15 3.77881
      vertex -13 123.15 4.25
      vertex -13 120.15 4.25
    endloop
  endfacet
  facet normal 0.382683 -5.71713e-08 -0.92388
    outer loop
      vertex -13 123.15 4.25
      vertex -14.1376 120.15 3.77881
      vertex -14.1853 123.15 3.75904
    endloop
  endfacet
  facet normal -0.382683 -0 -0.92388
    outer loop
      vertex -13 123.15 4.25
      vertex -11.8624 120.15 3.77881
      vertex -13 120.15 4.25
    endloop
  endfacet
  facet normal -0.382683 -6.207e-08 -0.92388
    outer loop
      vertex -11.8624 120.15 3.77881
      vertex -13 123.15 4.25
      vertex -11.8147 123.15 3.75904
    endloop
  endfacet
  facet normal 0.382684 -5.26616e-08 -0.923879
    outer loop
      vertex -14.591 120.15 3.59099
      vertex -14.1853 123.15 3.75904
      vertex -14.1376 120.15 3.77881
    endloop
  endfacet
  facet normal 0.382683 0 -0.92388
    outer loop
      vertex -14.1853 123.15 3.75904
      vertex -14.591 120.15 3.59099
      vertex -14.591 123.15 3.59099
    endloop
  endfacet
  facet normal 0.92388 1.88613e-07 -0.382683
    outer loop
      vertex -14.7788 120.15 3.13756
      vertex -15.25 123.15 2
      vertex -14.759 123.15 3.18529
    endloop
  endfacet
  facet normal 0.923879 0 -0.382684
    outer loop
      vertex -15.25 123.15 2
      vertex -14.7788 120.15 3.13756
      vertex -15.25 120.15 2
    endloop
  endfacet
  facet normal -0.382683 0 0.92388
    outer loop
      vertex -11.409 123.15 0.409009
      vertex -12.5466 120.15 -0.0621824
      vertex -11.409 120.15 0.409009
    endloop
  endfacet
  facet normal -0.382683 3.18106e-08 0.92388
    outer loop
      vertex -12.5466 120.15 -0.0621824
      vertex -11.409 123.15 0.409009
      vertex -12.5943 123.15 -0.0819527
    endloop
  endfacet
  facet normal 0.92388 -1.92899e-07 0.382683
    outer loop
      vertex -15.0622 120.15 1.54657
      vertex -14.591 123.15 0.409009
      vertex -15.082 123.15 1.5943
    endloop
  endfacet
  facet normal 0.923879 0 0.382684
    outer loop
      vertex -14.591 123.15 0.409009
      vertex -15.0622 120.15 1.54657
      vertex -14.591 120.15 0.409009
    endloop
  endfacet
  facet normal -0.92388 0 0.382683
    outer loop
      vertex -10.9378 120.15 1.54657
      vertex -11.409 123.15 0.409009
      vertex -11.409 120.15 0.409009
    endloop
  endfacet
  facet normal -0.92388 1.00794e-07 0.382683
    outer loop
      vertex -11.409 123.15 0.409009
      vertex -10.9378 120.15 1.54657
      vertex -10.918 123.15 1.5943
    endloop
  endfacet
  facet normal -0.92388 1.08203e-07 0.382683
    outer loop
      vertex -10.75 120.15 2
      vertex -10.918 123.15 1.5943
      vertex -10.9378 120.15 1.54657
    endloop
  endfacet
  facet normal -0.92388 0 0.382682
    outer loop
      vertex -10.918 123.15 1.5943
      vertex -10.75 120.15 2
      vertex -10.75 123.15 2
    endloop
  endfacet
  facet normal 0.923879 0 -0.382684
    outer loop
      vertex -14.591 120.15 3.59099
      vertex -14.759 123.15 3.18529
      vertex -14.591 123.15 3.59099
    endloop
  endfacet
  facet normal 0.92388 1.90293e-07 -0.382683
    outer loop
      vertex -14.759 123.15 3.18529
      vertex -14.591 120.15 3.59099
      vertex -14.7788 120.15 3.13756
    endloop
  endfacet
  facet normal 0.382683 2.69119e-08 0.92388
    outer loop
      vertex -14.591 123.15 0.409009
      vertex -13.4534 120.15 -0.0621824
      vertex -13.4057 123.15 -0.0819527
    endloop
  endfacet
  facet normal 0.382683 0 0.92388
    outer loop
      vertex -13.4534 120.15 -0.0621824
      vertex -14.591 123.15 0.409009
      vertex -14.591 120.15 0.409009
    endloop
  endfacet
  facet normal 0.382683 9.17792e-09 0.92388
    outer loop
      vertex -13.4057 123.15 -0.0819527
      vertex -13 120.15 -0.25
      vertex -13 123.15 -0.25
    endloop
  endfacet
  facet normal 0.382683 3.51511e-08 0.92388
    outer loop
      vertex -13 120.15 -0.25
      vertex -13.4057 123.15 -0.0819527
      vertex -13.4534 120.15 -0.0621824
    endloop
  endfacet
endsolid OpenSCAD_Model
