solid OpenSCAD_Model
  facet normal -1 0 0
    outer loop
      vertex 106 127.5 18
      vertex 106 0 18
      vertex 106 127.5 20
    endloop
  endfacet
  facet normal -1 0 0
    outer loop
      vertex 106 127.5 20
      vertex 106 147.5 168
      vertex 106 147.5 20
    endloop
  endfacet
  facet normal -1 0 0
    outer loop
      vertex 106 0 168
      vertex 106 127.5 20
      vertex 106 0 18
    endloop
  endfacet
  facet normal -1 0 0
    outer loop
      vertex 106 127.5 20
      vertex 106 0 168
      vertex 106 147.5 168
    endloop
  endfacet
  facet normal 0 0 1
    outer loop
      vertex 107.5 149 168
      vertex 106 147.5 168
      vertex 107.5 0 168
    endloop
  endfacet
  facet normal 0 0 1
    outer loop
      vertex 107.5 149 168
      vertex -106 147.5 168
      vertex 106 147.5 168
    endloop
  endfacet
  facet normal -0 0 1
    outer loop
      vertex -107.5 149 168
      vertex -106 147.5 168
      vertex 107.5 149 168
    endloop
  endfacet
  facet normal 0 0 1
    outer loop
      vertex -107.5 0 168
      vertex -106 147.5 168
      vertex -107.5 149 168
    endloop
  endfacet
  facet normal 0 0 1
    outer loop
      vertex -106 147.5 168
      vertex -107.5 0 168
      vertex -106 0 168
    endloop
  endfacet
  facet normal 0 0 1
    outer loop
      vertex 107.5 0 168
      vertex 106 147.5 168
      vertex 106 0 168
    endloop
  endfacet
  facet normal 1 0 0
    outer loop
      vertex 107.5 149 168
      vertex 107.5 147.5 20
      vertex 107.5 149 18
    endloop
  endfacet
  facet normal 1 0 0
    outer loop
      vertex 107.5 149 168
      vertex 107.5 127.5 20
      vertex 107.5 147.5 20
    endloop
  endfacet
  facet normal 1 -0 0
    outer loop
      vertex 107.5 0 168
      vertex 107.5 127.5 20
      vertex 107.5 149 168
    endloop
  endfacet
  facet normal 1 0 0
    outer loop
      vertex 107.5 0 18
      vertex 107.5 127.5 20
      vertex 107.5 0 168
    endloop
  endfacet
  facet normal 1 0 0
    outer loop
      vertex 107.5 127.5 20
      vertex 107.5 0 18
      vertex 107.5 127.5 18
    endloop
  endfacet
  facet normal 1 0 0
    outer loop
      vertex 107.5 149 18
      vertex 107.5 147.5 20
      vertex 107.5 147.5 18
    endloop
  endfacet
  facet normal 0 0 -1
    outer loop
      vertex -107.5 147.5 18
      vertex 107.5 149 18
      vertex 107.5 147.5 18
    endloop
  endfacet
  facet normal -0 0 -1
    outer loop
      vertex 107.5 149 18
      vertex -107.5 147.5 18
      vertex -107.5 149 18
    endloop
  endfacet
  facet normal 0 0 -1
    outer loop
      vertex -107.5 0 18
      vertex -106 127.5 18
      vertex -106 0 18
    endloop
  endfacet
  facet normal -0 0 -1
    outer loop
      vertex -106 127.5 18
      vertex -107.5 0 18
      vertex -107.5 127.5 18
    endloop
  endfacet
  facet normal 0 0 -1
    outer loop
      vertex 106 0 18
      vertex 107.5 127.5 18
      vertex 107.5 0 18
    endloop
  endfacet
  facet normal -0 0 -1
    outer loop
      vertex 107.5 127.5 18
      vertex 106 0 18
      vertex 106 127.5 18
    endloop
  endfacet
  facet normal 0 -1 0
    outer loop
      vertex 106 0 18
      vertex 107.5 0 168
      vertex 106 0 168
    endloop
  endfacet
  facet normal 0 -1 -0
    outer loop
      vertex 107.5 0 168
      vertex 106 0 18
      vertex 107.5 0 18
    endloop
  endfacet
  facet normal 0 -1 0
    outer loop
      vertex -106 147.5 20
      vertex 106 147.5 168
      vertex -106 147.5 168
    endloop
  endfacet
  facet normal 0 -1 -0
    outer loop
      vertex 106 147.5 168
      vertex -106 147.5 20
      vertex 106 147.5 20
    endloop
  endfacet
  facet normal 0 -1 0
    outer loop
      vertex -107.5 147.5 18
      vertex -106 147.5 20
      vertex -107.5 147.5 20
    endloop
  endfacet
  facet normal 0 -1 -0
    outer loop
      vertex -106 147.5 20
      vertex -107.5 147.5 18
      vertex 106 147.5 20
    endloop
  endfacet
  facet normal 0 -1 0
    outer loop
      vertex 107.5 147.5 18
      vertex 106 147.5 20
      vertex -107.5 147.5 18
    endloop
  endfacet
  facet normal 0 -1 0
    outer loop
      vertex 106 147.5 20
      vertex 107.5 147.5 18
      vertex 107.5 147.5 20
    endloop
  endfacet
  facet normal -1 0 0
    outer loop
      vertex -107.5 127.5 18
      vertex -107.5 0 18
      vertex -107.5 127.5 20
    endloop
  endfacet
  facet normal -1 0 0
    outer loop
      vertex -107.5 147.5 20
      vertex -107.5 149 18
      vertex -107.5 147.5 18
    endloop
  endfacet
  facet normal -1 0 0
    outer loop
      vertex -107.5 149 18
      vertex -107.5 147.5 20
      vertex -107.5 149 168
    endloop
  endfacet
  facet normal -1 0 0
    outer loop
      vertex -107.5 127.5 20
      vertex -107.5 149 168
      vertex -107.5 147.5 20
    endloop
  endfacet
  facet normal -1 0 0
    outer loop
      vertex -107.5 0 168
      vertex -107.5 127.5 20
      vertex -107.5 0 18
    endloop
  endfacet
  facet normal -1 0 0
    outer loop
      vertex -107.5 127.5 20
      vertex -107.5 0 168
      vertex -107.5 149 168
    endloop
  endfacet
  facet normal 1 0 0
    outer loop
      vertex -106 147.5 168
      vertex -106 127.5 20
      vertex -106 147.5 20
    endloop
  endfacet
  facet normal 1 -0 0
    outer loop
      vertex -106 0 168
      vertex -106 127.5 20
      vertex -106 147.5 168
    endloop
  endfacet
  facet normal 1 0 0
    outer loop
      vertex -106 0 18
      vertex -106 127.5 20
      vertex -106 0 168
    endloop
  endfacet
  facet normal 1 0 0
    outer loop
      vertex -106 127.5 20
      vertex -106 0 18
      vertex -106 127.5 18
    endloop
  endfacet
  facet normal 0 -1 0
    outer loop
      vertex -107.5 0 18
      vertex -106 0 168
      vertex -107.5 0 168
    endloop
  endfacet
  facet normal 0 -1 -0
    outer loop
      vertex -106 0 168
      vertex -107.5 0 18
      vertex -106 0 18
    endloop
  endfacet
  facet normal 0 1 -0
    outer loop
      vertex 107.5 149 18
      vertex -107.5 149 168
      vertex 107.5 149 168
    endloop
  endfacet
  facet normal 0 1 0
    outer loop
      vertex -107.5 149 168
      vertex 107.5 149 18
      vertex -107.5 149 18
    endloop
  endfacet
  facet normal 0 0 -1
    outer loop
      vertex -107.5 127.5 20
      vertex -106 147.5 20
      vertex -106 127.5 20
    endloop
  endfacet
  facet normal -0 0 -1
    outer loop
      vertex -106 147.5 20
      vertex -107.5 127.5 20
      vertex -107.5 147.5 20
    endloop
  endfacet
  facet normal 0 0 -1
    outer loop
      vertex 106 127.5 20
      vertex 107.5 147.5 20
      vertex 107.5 127.5 20
    endloop
  endfacet
  facet normal -0 0 -1
    outer loop
      vertex 107.5 147.5 20
      vertex 106 127.5 20
      vertex 106 147.5 20
    endloop
  endfacet
  facet normal 0 1 -0
    outer loop
      vertex -106 127.5 18
      vertex -107.5 127.5 20
      vertex -106 127.5 20
    endloop
  endfacet
  facet normal 0 1 0
    outer loop
      vertex -107.5 127.5 20
      vertex -106 127.5 18
      vertex -107.5 127.5 18
    endloop
  endfacet
  facet normal 0 1 -0
    outer loop
      vertex 107.5 127.5 18
      vertex 106 127.5 20
      vertex 107.5 127.5 20
    endloop
  endfacet
  facet normal 0 1 0
    outer loop
      vertex 106 127.5 20
      vertex 107.5 127.5 18
      vertex 106 127.5 18
    endloop
  endfacet
endsolid OpenSCAD_Model
